<REAPER_PROJECT 0.1 "7.42/macOS-arm64" 1759770040
  <NOTES 0 2
  >
  RIPPLE 0 0
  GROUPOVERRIDE 0 0 0
  AUTOXFADE 128
  ENVATTACH 2
  POOLEDENVATTACH 0
  MIXERUIFLAGS 11 48
  ENVFADESZ10 40
  PEAKGAIN 1
  FEEDBACK 0
  PANLAW 1
  PROJOFFS 0 0 0
  MAXPROJLEN 0 0
  GRID 3454 8 1 8 1 0 0 0
  TIMEMODE 1 5 -1 30 0 0 -1
  VIDEO_CONFIG 0 0 65792
  PANMODE 3
  PANLAWFLAGS 3
  CURSOR 22.38908117941916
  ZOOM 4.91310916774539 0 0
  VZOOMEX 0.69999999 0
  USE_REC_CFG 0
  RECMODE 1
  SMPTESYNC 0 30 100 40 1000 300 0 0 1 0 0
  LOOP 0
  LOOPGRAN 0 4
  RECORD_PATH "Media" ""
  <RECORD_CFG
    ZXZhdxgAAQ==
  >
  <APPLYFX_CFG
  >
  RENDER_FILE ""
  RENDER_PATTERN bell-comp-4
  RENDER_FMT 0 2 44100
  RENDER_1X 0
  RENDER_RANGE 1 0 0 0 1000
  RENDER_RESAMPLE 3 0 1
  RENDER_ADDTOPROJ 0
  RENDER_STEMS 0
  RENDER_DITHER 0
  RENDER_TRIM 0 0 0 0
  TIMELOCKMODE 1
  TEMPOENVLOCKMODE 1
  ITEMMIX 1
  DEFPITCHMODE 589824 0
  TAKELANE 1
  SAMPLERATE 44100 0 0
  <RENDER_CFG
    bDNwbYAAAAAAAAAAAgAAAP////8EAAAAgAAAAAAAAAA=
  >
  LOCK 1
  <METRONOME 16 2
    VOL 0.25 0.125
    BEATLEN 4
    FREQ 1760 880 1
    SAMPLES "" "" "" ""
    SPLIGNORE 0 0
    SPLDEF 2 660 "" 0 ""
    SPLDEF 3 440 "" 0 ""
    PATTERN 0 169
    PATTERNSTR ABBB
    MULT 1
  >
  GLOBAL_AUTO -1
  TEMPO 180 12 8 0
  PLAYRATE 1 0 0.25 4
  SELECTION 0 0
  SELECTION2 0 0
  MASTERAUTOMODE 0
  MASTERTRACKHEIGHT 0 0
  MASTERPEAKCOL 16576
  MASTERMUTESOLO 0
  MASTERTRACKVIEW 0 0.6667 0.5 0.5 0 0 0 0 0 0 0 0 0 0
  MASTERHWOUT 0 0 1 0 0 0 0 -1
  MASTER_NCH 2 2
  MASTER_VOLUME 1 0 -1 -1 1
  MASTER_PANMODE 3
  MASTER_PANLAWFLAGS 3
  MASTER_FX 1
  MASTER_SEL 0
  <MASTERPLAYSPEEDENV
    EGUID {9022D244-310C-6048-A249-BB7E436F8560}
    ACT 0 -1
    VIS 0 1 1
    LANEHEIGHT 0 0
    ARM 0
    DEFSHAPE 0 -1 -1
  >
  <TEMPOENVEX
    EGUID {C31FC1C5-F094-6541-B7BC-22093D074757}
    ACT 1 -1
    VIS 1 0 1
    LANEHEIGHT 0 0
    ARM 0
    DEFSHAPE 1 -1 -1
  >
  MARKER 1 0 "" 0 0 1 B {B5AEA17D-7E5B-984E-8E25-FCA19A34EBD3} 0
  <PROJBAY
  >
  <TRACK {32EB1E7D-DE90-4F41-B5E7-FAAC797A4086}
    NAME 1
    PEAKCOL 16576
    BEAT -1
    AUTOMODE 0
    PANLAWFLAGS 3
    VOLPAN 1 0 -1 -1 1
    MUTESOLO 0 0 0
    IPHASE 0
    PLAYOFFS 0 1
    ISBUS 0 0
    BUSCOMP 0 0 0 0 0
    SHOWINMIX 1 0.6667 0.5 1 0.5 0 0 0
    FIXEDLANES 9 0 0 0 0
    SEL 1
    REC 1 4161 0 0 0 0 0 0
    VU 64
    TRACKHEIGHT 0 0 0 0 0 0 0
    INQ 0 0 0 0.5 100 0 0 100
    NCHAN 2
    FX 1
    TRACKID {32EB1E7D-DE90-4F41-B5E7-FAAC797A4086}
    PERF 0
    MIDIOUT -1
    MAINSEND 1 0
    <ITEM
      POSITION 0
      SNAPOFFS 0
      LENGTH 230.4838481711358
      LOOP 1
      ALLTAKES 0
      FADEIN 1 0 0 1 0 0 0
      FADEOUT 1 0 0 1 0 0 0
      MUTE 0 0
      SEL 1
      IGUID {1A433189-B682-EF46-9E7E-9A35EA993DE3}
      IID 25
      NAME 01-1-MIDI
      VOLPAN 1 0 1 -1
      SOFFS 0 0
      PLAYRATE 1 1 0 -1 0 0.0025
      CHANMODE 0
      GUID {D536D97B-AC2E-924B-8B52-F4FAD3A50527}
      RECPASS 19
      <SOURCE MIDI
        HASDATA 1 960 QN
        CCINTERP 32
        POOLEDEVTS {C512C7AA-761B-BF44-B90F-4D0C04FEED7C}
        E 0 90 48 4e
        E 343 90 48 00
        E 614 90 48 37
        E 346 90 48 00
        E 614 90 52 42
        E 346 90 52 00
        E 134 90 4a 35
        E 346 90 4a 00
        E 614 90 4a 4e
        E 346 90 4a 00
        E 614 90 4f 35
        E 346 90 4f 00
        E 614 90 48 44
        E 346 90 48 00
        E 134 90 48 37
        E 346 90 48 00
        E 614 90 48 50
        E 346 90 48 00
        E 614 90 52 36
        E 346 90 52 00
        E 134 90 4a 42
        E 346 90 4a 00
        E 614 90 4a 37
        E 346 90 4a 00
        E 614 90 4f 4f
        E 345 90 4f 00
        E 615 90 48 38
        E 345 90 48 00
        E 135 90 48 43
        E 346 90 48 00
        E 614 90 48 38
        E 346 90 48 00
        E 614 90 52 4c
        E 346 90 52 00
        E 134 90 4a 38
        E 346 90 4a 00
        E 614 90 4a 40
        E 346 90 4a 00
        E 614 90 4f 35
        E 346 90 4f 00
        E 614 90 48 4e
        E 346 90 48 00
        E 134 90 48 35
        E 346 90 48 00
        E 614 90 48 43
        E 346 90 48 00
        E 614 90 52 37
        E 346 90 52 00
        E 134 90 4a 50
        E 346 90 4a 00
        E 614 90 4a 37
        E 346 90 4a 00
        E 614 90 4f 42
        E 346 90 4f 00
        E 614 90 48 36
        E 346 90 48 00
        E 134 90 48 4c
        E 346 90 48 00
        E 614 90 48 36
        E 346 90 48 00
        E 614 90 52 44
        E 346 90 52 00
        E 134 90 4a 36
        E 346 90 4a 00
        E 614 90 4a 4f
        E 346 90 4a 00
        E 614 90 4f 35
        E 346 90 4f 00
        E 614 90 48 41
        E 346 90 48 00
        E 134 90 48 36
        E 346 90 48 00
        E 614 90 48 4d
        E 346 90 48 00
        E 614 90 52 37
        E 346 90 52 00
        E 135 90 4a 44
        E 345 90 4a 00
        E 614 90 4a 38
        E 346 90 4a 00
        E 614 90 4f 4e
        E 346 90 4f 00
        E 614 90 48 36
        E 346 90 48 00
        E 134 90 48 44
        E 346 90 48 00
        E 614 90 48 35
        E 346 90 48 00
        E 614 90 52 4d
        E 346 90 52 00
        E 134 90 4a 34
        E 346 90 4a 00
        E 614 90 4a 44
        E 346 90 4a 00
        E 614 90 4f 35
        E 346 90 4f 00
        E 614 90 48 4f
        E 346 90 48 00
        E 134 90 48 38
        E 346 90 48 00
        E 614 90 48 44
        E 346 90 48 00
        E 614 90 52 36
        E 346 90 52 00
        E 134 90 4a 50
        E 346 90 4a 00
        E 3015 90 48 4f
        E 345 90 48 00
        E 614 90 48 34
        E 346 90 48 00
        E 614 90 52 40
        E 346 90 52 00
        E 134 90 4a 36
        E 346 90 4a 00
        E 614 90 4a 4d
        E 346 90 4a 00
        E 614 90 4f 34
        E 346 90 4f 00
        E 614 90 48 42
        E 346 90 48 00
        E 134 90 48 35
        E 346 90 48 00
        E 616 90 48 4e
        E 344 90 48 00
        E 614 90 52 34
        E 346 90 52 00
        E 134 90 4a 40
        E 346 90 4a 00
        E 614 90 4a 37
        E 346 90 4a 00
        E 614 90 4f 4f
        E 346 90 4f 00
        E 614 90 48 36
        E 346 90 48 00
        E 134 90 48 41
        E 346 90 48 00
        E 614 90 48 36
        E 346 90 48 00
        E 614 90 52 4d
        E 346 90 52 00
        E 134 90 4a 36
        E 346 90 4a 00
        E 614 90 4a 44
        E 346 90 4a 00
        E 614 90 4f 34
        E 346 90 4f 00
        E 614 90 48 4d
        E 346 90 48 00
        E 134 90 48 34
        E 346 90 48 00
        E 614 90 48 42
        E 346 90 48 00
        E 614 90 52 38
        E 346 90 52 00
        E 134 90 4a 4e
        E 346 90 4a 00
        E 614 90 4a 37
        E 346 90 4a 00
        E 616 90 4f 42
        E 344 90 4f 00
        E 614 90 48 35
        E 346 90 48 00
        E 136 90 48 4f
        E 344 90 48 00
        E 614 90 48 38
        E 346 90 48 00
        E 614 90 52 42
        E 346 90 52 00
        E 134 90 4a 36
        E 345 90 4a 00
        E 615 90 4a 4d
        E 346 90 4a 00
        E 614 90 4f 37
        E 346 90 4f 00
        E 617 90 48 41
        E 343 90 48 00
        E 134 90 48 34
        E 346 90 48 00
        E 615 90 48 50
        E 345 90 48 00
        E 614 90 52 38
        E 346 90 52 00
        E 134 90 4a 40
        E 346 90 4a 00
        E 614 90 4a 34
        E 346 90 4a 00
        E 614 90 4f 50
        E 346 90 4f 00
        E 614 90 48 35
        E 346 90 48 00
        E 134 90 48 42
        E 346 90 48 00
        E 614 90 48 35
        E 346 90 48 00
        E 615 90 52 4d
        E 345 90 52 00
        E 134 90 4a 35
        E 346 90 4a 00
        E 615 90 4a 41
        E 345 90 4a 00
        E 614 90 4f 37
        E 346 90 4f 00
        E 614 90 48 4e
        E 346 90 48 00
        E 134 90 48 37
        E 346 90 48 00
        E 614 90 48 42
        E 346 90 48 00
        E 614 90 52 35
        E 346 90 52 00
        E 134 90 4a 4f
        E 346 90 4a 00
        E 614 90 4a 37
        E 346 90 4a 00
        E 614 90 4f 41
        E 346 90 4f 00
        E 614 90 48 35
        E 346 90 48 00
        E 136 90 48 4e
        E 344 90 48 00
        E 614 90 48 37
        E 346 90 48 00
        E 614 90 52 43
        E 346 90 52 00
        E 134 90 4a 35
        E 346 90 4a 00
        E 614 90 4a 4d
        E 346 90 4a 00
        E 614 90 4f 37
        E 346 90 4f 00
        E 615 90 48 43
        E 345 90 48 00
        E 134 90 48 36
        E 346 90 48 00
        E 614 90 48 4e
        E 346 90 48 00
        E 614 90 52 36
        E 346 90 52 00
        E 134 90 4a 43
        E 346 90 4a 00
        E 614 90 4a 35
        E 346 90 4a 00
        E 614 90 4f 4d
        E 345 90 4f 00
        E 615 90 48 38
        E 346 90 48 00
        E 134 90 48 41
        E 346 90 48 00
        E 614 90 48 38
        E 346 90 48 00
        E 616 90 52 50
        E 344 90 52 00
        E 134 90 4a 37
        E 346 90 4a 00
        E 614 90 4a 42
        E 346 90 4a 00
        E 614 90 4f 36
        E 346 90 4f 00
        E 614 90 48 4c
        E 346 90 48 00
        E 134 90 48 38
        E 346 90 48 00
        E 614 90 48 43
        E 346 90 48 00
        E 614 90 52 34
        E 346 90 52 00
        E 134 90 4a 4d
        E 346 90 4a 00
        E 614 90 4a 38
        E 346 90 4a 00
        E 614 90 4f 44
        E 346 90 4f 00
        E 614 90 48 36
        E 346 90 48 00
        E 134 90 48 4d
        E 346 90 48 00
        E 614 90 48 36
        E 346 90 48 00
        E 614 90 52 43
        E 346 90 52 00
        E 134 90 4a 34
        E 346 90 4a 00
        E 614 90 4a 50
        E 346 90 4a 00
        E 614 90 4f 36
        E 346 90 4f 00
        E 618 90 48 44
        E 342 90 48 00
        E 134 90 48 35
        E 346 90 48 00
        E 614 90 48 4f
        E 346 90 48 00
        E 614 90 52 36
        E 346 90 52 00
        E 134 90 4a 42
        E 346 90 4a 00
        E 614 90 4a 34
        E 346 90 4a 00
        E 614 90 4f 4c
        E 346 90 4f 00
        E 614 90 48 34
        E 346 90 48 00
        E 134 90 48 43
        E 346 90 48 00
        E 614 90 48 35
        E 346 90 48 00
        E 614 90 52 4f
        E 346 90 52 00
        E 134 90 4a 34
        E 346 90 4a 00
        E 614 90 4a 43
        E 346 90 4a 00
        E 614 90 4f 36
        E 346 90 4f 00
        E 614 90 48 4e
        E 346 90 48 00
        E 139 90 48 36
        E 341 90 48 00
        E 614 90 48 42
        E 346 90 48 00
        E 614 90 52 38
        E 346 90 52 00
        E 134 90 4a 4e
        E 346 90 4a 00
        E 614 90 4a 38
        E 346 90 4a 00
        E 614 90 4f 43
        E 346 90 4f 00
        E 614 90 48 35
        E 346 90 48 00
        E 135 90 48 4e
        E 345 90 48 00
        E 614 90 48 34
        E 346 90 48 00
        E 614 90 52 40
        E 346 90 52 00
        E 138 90 4a 38
        E 342 90 4a 00
        E 614 90 4a 4c
        E 346 90 4a 00
        E 614 90 4f 38
        E 346 90 4f 00
        E 614 90 48 41
        E 346 90 48 00
        E 134 90 48 34
        E 346 90 48 00
        E 614 90 48 4d
        E 346 90 48 00
        E 614 90 52 34
        E 346 90 52 00
        E 134 90 4a 42
        E 346 90 4a 00
        E 616 90 4a 35
        E 344 90 4a 00
        E 614 90 4f 4c
        E 346 90 4f 00
        E 614 90 48 38
        E 346 90 48 00
        E 134 90 48 43
        E 346 90 48 00
        E 614 90 48 35
        E 346 90 48 00
        E 614 90 52 4d
        E 346 90 52 00
        E 134 90 4a 38
        E 346 90 4a 00
        E 614 90 4a 42
        E 346 90 4a 00
        E 617 90 4f 36
        E 343 90 4f 00
        E 614 90 48 4d
        E 346 90 48 00
        E 140 90 48 36
        E 340 90 48 00
        E 614 90 48 40
        E 346 90 48 00
        E 614 90 52 38
        E 346 90 52 00
        E 134 90 4a 50
        E 346 90 4a 00
        E 614 90 4a 37
        E 346 90 4a 00
        E 614 90 4f 44
        E 346 90 4f 00
        E 614 90 48 37
        E 346 90 48 00
        E 134 90 48 50
        E 346 90 48 00
        E 618 90 48 34
        E 342 90 48 00
        E 614 90 52 40
        E 346 90 52 00
        E 137 90 4a 34
        E 343 90 4a 00
        E 614 90 4a 50
        E 346 90 4a 00
        E 614 90 4f 34
        E 346 90 4f 00
        E 614 90 48 41
        E 346 90 48 00
        E 134 90 48 34
        E 346 90 48 00
        E 614 90 48 50
        E 346 90 48 00
        E 617 90 52 38
        E 343 90 52 00
        E 134 90 4a 41
        E 346 90 4a 00
        E 616 90 4a 35
        E 344 90 4a 00
        E 614 90 4f 4c
        E 346 90 4f 00
        E 614 90 48 37
        E 346 90 48 00
        E 134 90 48 40
        E 346 90 48 00
        E 614 90 48 35
        E 346 90 48 00
        E 614 90 52 4e
        E 346 90 52 00
        E 134 90 4a 37
        E 346 90 4a 00
        E 614 90 4a 42
        E 346 90 4a 00
        E 616 90 4f 35
        E 344 90 4f 00
        E 614 90 48 4d
        E 346 90 48 00
        E 134 90 48 36
        E 346 90 48 00
        E 614 90 48 41
        E 346 90 48 00
        E 614 90 52 34
        E 346 90 52 00
        E 134 90 4a 4f
        E 346 90 4a 00
        E 614 90 4a 34
        E 346 90 4a 00
        E 614 90 4f 44
        E 346 90 4f 00
        E 618 90 48 35
        E 342 90 48 00
        E 134 90 48 50
        E 346 90 48 00
        E 617 90 48 38
        E 343 90 48 00
        E 614 90 52 43
        E 346 90 52 00
        E 135 90 4a 35
        E 345 90 4a 00
        E 614 90 4a 4c
        E 346 90 4a 00
        E 614 90 4f 35
        E 346 90 4f 00
        E 614 90 48 41
        E 346 90 48 00
        E 134 90 48 38
        E 346 90 48 00
        E 614 90 48 50
        E 346 90 48 00
        E 618 90 52 34
        E 342 90 52 00
        E 134 90 4a 42
        E 346 90 4a 00
        E 616 90 4a 37
        E 344 90 4a 00
        E 614 90 4f 4f
        E 346 90 4f 00
        E 614 90 48 36
        E 346 90 48 00
        E 134 90 48 40
        E 346 90 48 00
        E 614 90 48 36
        E 346 90 48 00
        E 614 90 52 50
        E 346 90 52 00
        E 134 90 4a 37
        E 346 90 4a 00
        E 614 90 4a 43
        E 346 90 4a 00
        E 614 90 4f 36
        E 346 90 4f 00
        E 614 90 48 4c
        E 346 90 48 00
        E 138 90 48 35
        E 342 90 48 00
        E 614 90 48 40
        E 346 90 48 00
        E 614 90 52 37
        E 346 90 52 00
        E 134 90 4a 4e
        E 346 90 4a 00
        E 614 90 4a 38
        E 346 90 4a 00
        E 614 90 4f 42
        E 346 90 4f 00
        E 615 90 48 36
        E 345 90 48 00
        E 134 90 48 4f
        E 346 90 48 00
        E 617 90 48 35
        E 343 90 48 00
        E 614 90 52 42
        E 346 90 52 00
        E 134 90 4a 38
        E 346 90 4a 00
        E 614 90 4a 4f
        E 346 90 4a 00
        E 614 90 4f 37
        E 346 90 4f 00
        E 614 90 48 43
        E 346 90 48 00
        E 134 90 48 35
        E 346 90 48 00
        E 614 90 48 4c
        E 346 90 48 00
        E 618 90 52 37
        E 342 90 52 00
        E 134 90 4a 43
        E 346 90 4a 00
        E 614 90 4a 35
        E 346 90 4a 00
        E 614 90 4f 50
        E 346 90 4f 00
        E 614 90 48 36
        E 346 90 48 00
        E 134 90 48 40
        E 346 90 48 00
        E 614 90 48 37
        E 346 90 48 00
        E 614 90 52 4c
        E 346 90 52 00
        E 134 90 4a 38
        E 346 90 4a 00
        E 614 90 4a 43
        E 346 90 4a 00
        E 614 90 4f 36
        E 346 90 4f 00
        E 614 90 48 4f
        E 346 90 48 00
        E 134 90 48 34
        E 346 90 48 00
        E 614 90 48 43
        E 346 90 48 00
        E 614 90 52 36
        E 346 90 52 00
        E 135 90 4a 4d
        E 345 90 4a 00
        E 614 90 4a 34
        E 346 90 4a 00
        E 614 90 4f 41
        E 346 90 4f 00
        E 614 90 48 38
        E 346 90 48 00
        E 135 90 48 4c
        E 345 90 48 00
        E 614 90 48 38
        E 346 90 48 00
        E 615 90 52 40
        E 345 90 52 00
        E 134 90 4a 35
        E 346 90 4a 00
        E 619 90 4a 4e
        E 341 90 4a 00
        E 614 90 4f 36
        E 346 90 4f 00
        E 614 90 48 44
        E 346 90 48 00
        E 135 90 48 35
        E 345 90 48 00
        E 615 90 48 50
        E 345 90 48 00
        E 615 90 52 35
        E 345 90 52 00
        E 135 90 4a 41
        E 345 90 4a 00
        E 614 90 4a 36
        E 346 90 4a 00
        E 615 90 4f 4e
        E 345 90 4f 00
        E 615 90 48 35
        E 345 90 48 00
        E 142 90 48 44
        E 338 90 48 00
        E 614 90 48 37
        E 346 90 48 00
        E 615 90 52 4d
        E 345 90 52 00
        E 135 90 4a 37
        E 345 90 4a 00
        E 615 90 4a 44
        E 345 90 4a 00
        E 615 90 4f 38
        E 345 90 4f 00
        E 615 90 48 4f
        E 345 90 48 00
        E 135 90 48 37
        E 345 90 48 00
        E 619 90 48 40
        E 341 90 48 00
        E 615 90 52 36
        E 345 90 52 00
        E 139 90 4a 4d
        E 341 90 4a 00
        E 615 90 4a 38
        E 345 90 4a 00
        E 615 90 4f 40
        E 345 90 4f 00
        E 615 90 48 36
        E 345 90 48 00
        E 135 90 48 4f
        E 345 90 48 00
        E 615 90 48 38
        E 345 90 48 00
        E 616 90 52 44
        E 344 90 52 00
        E 135 90 4a 36
        E 345 90 4a 00
        E 620 90 4a 4f
        E 340 90 4a 00
        E 615 90 4f 36
        E 345 90 4f 00
        E 615 90 48 40
        E 345 90 48 00
        E 135 90 48 37
        E 345 90 48 00
        E 615 90 48 50
        E 345 90 48 00
        E 615 90 52 34
        E 345 90 52 00
        E 135 90 4a 40
        E 345 90 4a 00
        E 615 90 4a 35
        E 345 90 4a 00
        E 618 90 4f 4d
        E 342 90 4f 00
        E 615 90 48 34
        E 345 90 48 00
        E 139 90 48 40
        E 341 90 48 00
        E 615 90 48 38
        E 345 90 48 00
        E 615 90 52 50
        E 345 90 52 00
        E 135 90 4a 35
        E 345 90 4a 00
        E 615 90 4a 41
        E 345 90 4a 00
        E 615 90 4f 38
        E 345 90 4f 00
        E 617 90 48 4c
        E 343 90 48 00
        E 135 90 48 36
        E 345 90 48 00
        E 620 90 48 44
        E 340 90 48 00
        E 615 90 52 34
        E 345 90 52 00
        E 136 90 4a 4d
        E 344 90 4a 00
        E 615 90 4a 35
        E 345 90 4a 00
        E 615 90 4f 41
        E 345 90 4f 00
        E 615 90 48 35
        E 345 90 48 00
        E 135 90 48 50
        E 345 90 48 00
        E 615 90 48 36
        E 345 90 48 00
        E 615 90 52 42
        E 345 90 52 00
        E 135 90 4a 35
        E 345 90 4a 00
        E 618 90 4a 4e
        E 342 90 4a 00
        E 615 90 4f 35
        E 345 90 4f 00
        E 615 90 48 42
        E 345 90 48 00
        E 135 90 48 35
        E 345 90 48 00
        E 615 90 48 4e
        E 345 90 48 00
        E 615 90 52 38
        E 345 90 52 00
        E 135 90 4a 41
        E 345 90 4a 00
        E 615 90 4a 37
        E 345 90 4a 00
        E 617 90 4f 4e
        E 343 90 4f 00
        E 615 90 48 35
        E 345 90 48 00
        E 139 90 48 43
        E 341 90 48 00
        E 615 90 48 34
        E 345 90 48 00
        E 615 90 52 4f
        E 345 90 52 00
        E 135 90 4a 35
        E 345 90 4a 00
        E 615 90 4a 41
        E 345 90 4a 00
        E 615 90 4f 36
        E 345 90 4f 00
        E 615 90 48 4e
        E 345 90 48 00
        E 135 90 48 35
        E 345 90 48 00
        E 617 90 48 40
        E 343 90 48 00
        E 615 90 52 36
        E 345 90 52 00
        E 137 90 4a 50
        E 343 90 4a 00
        E 614 90 4a 38
        E 346 90 4a 00
        E 615 90 4f 43
        E 345 90 4f 00
        E 615 90 48 35
        E 345 90 48 00
        E 135 90 48 4d
        E 345 90 48 00
        E 615 90 48 35
        E 345 90 48 00
        E 623 90 52 42
        E 337 90 52 00
        E 135 90 4a 35
        E 345 90 4a 00
        E 615 90 4a 4d
        E 345 90 4a 00
        E 615 90 4f 36
        E 345 90 4f 00
        E 615 90 48 42
        E 345 90 48 00
        E 135 90 48 34
        E 345 90 48 00
        E 615 90 48 4f
        E 345 90 48 00
        E 615 90 52 37
        E 345 90 52 00
        E 135 90 4a 41
        E 345 90 4a 00
        E 615 90 4a 38
        E 345 90 4a 00
        E 615 90 4f 4e
        E 345 90 4f 00
        E 615 90 48 35
        E 345 90 48 00
        E 140 90 48 40
        E 340 90 48 00
        E 615 90 48 37
        E 345 90 48 00
        E 615 90 52 4e
        E 345 90 52 00
        E 143 90 4a 36
        E 337 90 4a 00
        E 615 90 4a 41
        E 345 90 4a 00
        E 615 90 4f 36
        E 345 90 4f 00
        E 615 90 48 4f
        E 345 90 48 00
        E 135 90 48 37
        E 345 90 48 00
        E 615 90 48 41
        E 345 90 48 00
        E 615 90 52 35
        E 345 90 52 00
        E 135 90 4a 50
        E 345 90 4a 00
        E 619 90 4a 38
        E 341 90 4a 00
        E 615 90 4f 43
        E 345 90 4f 00
        E 615 90 48 37
        E 345 90 48 00
        E 135 90 48 4c
        E 345 90 48 00
        E 615 90 48 36
        E 345 90 48 00
        E 616 90 52 44
        E 344 90 52 00
        E 135 90 4a 35
        E 345 90 4a 00
        E 615 90 4a 4d
        E 345 90 4a 00
        E 615 90 4f 36
        E 345 90 4f 00
        E 614 90 48 40
        E 346 90 48 00
        E 145 90 48 36
        E 335 90 48 00
        E 615 90 48 50
        E 345 90 48 00
        E 615 90 52 37
        E 345 90 52 00
        E 135 90 4a 42
        E 345 90 4a 00
        E 615 90 4a 35
        E 345 90 4a 00
        E 615 90 4f 4d
        E 345 90 4f 00
        E 615 90 48 38
        E 345 90 48 00
        E 136 90 48 40
        E 344 90 48 00
        E 615 90 48 38
        E 345 90 48 00
        E 615 90 52 50
        E 345 90 52 00
        E 142 90 4a 34
        E 338 90 4a 00
        E 615 90 4a 43
        E 345 90 4a 00
        E 615 90 4f 35
        E 345 90 4f 00
        E 615 90 48 50
        E 345 90 48 00
        E 135 90 48 36
        E 345 90 48 00
        E 615 90 48 40
        E 345 90 48 00
        E 615 90 52 35
        E 345 90 52 00
        E 135 90 4a 50
        E 345 90 4a 00
        E 622 90 4a 35
        E 338 90 4a 00
        E 615 90 4f 43
        E 345 90 4f 00
        E 615 90 48 37
        E 345 90 48 00
        E 135 90 48 4c
        E 345 90 48 00
        E 615 90 48 37
        E 345 90 48 00
        E 615 90 52 43
        E 345 90 52 00
        E 135 90 4a 37
        E 345 90 4a 00
        E 615 90 4a 4d
        E 345 90 4a 00
        E 615 90 4f 34
        E 345 90 4f 00
        E 615 90 48 44
        E 345 90 48 00
        E 143 90 48 37
        E 337 90 48 00
        E 615 90 48 4e
        E 345 90 48 00
        E 615 90 52 37
        E 345 90 52 00
        E 135 90 4a 44
        E 345 90 4a 00
        E 615 90 4a 36
        E 345 90 4a 00
        E 615 90 4f 4e
        E 345 90 4f 00
        E 615 90 48 36
        E 345 90 48 00
        E 135 90 48 42
        E 345 90 48 00
        E 615 90 48 38
        E 345 90 48 00
        E 615 90 52 4c
        E 345 90 52 00
        E 135 90 4a 35
        E 345 90 4a 00
        E 615 90 4a 44
        E 345 90 4a 00
        E 615 90 4f 38
        E 345 90 4f 00
        E 615 90 48 4e
        E 345 90 48 00
        E 135 90 48 37
        E 345 90 48 00
        E 615 90 48 40
        E 345 90 48 00
        E 625 90 52 34
        E 335 90 52 00
        E 135 90 4a 4c
        E 345 90 4a 00
        E 618 90 4a 38
        E 342 90 4a 00
        E 615 90 4f 41
        E 345 90 4f 00
        E 615 90 48 34
        E 345 90 48 00
        E 135 90 48 50
        E 345 90 48 00
        E 615 90 48 35
        E 345 90 48 00
        E 615 90 52 40
        E 345 90 52 00
        E 135 90 49 38
        E 345 90 49 00
        E 615 90 49 50
        E 345 90 49 00
        E 615 90 48 37
        E 345 90 48 00
        E 615 90 52 42
        E 345 90 52 00
        E 135 90 52 35
        E 345 90 52 00
        E 615 90 52 4e
        E 345 90 52 00
        E 615 90 49 38
        E 345 90 49 00
        E 135 90 48 40
        E 345 90 48 00
        E 615 90 48 35
        E 345 90 48 00
        E 615 90 52 4d
        E 345 90 52 00
        E 619 90 49 35
        E 341 90 49 00
        E 135 90 49 43
        E 345 90 49 00
        E 616 90 49 34
        E 344 90 49 00
        E 615 90 48 4c
        E 345 90 48 00
        E 136 90 52 34
        E 344 90 52 00
        E 615 90 52 43
        E 345 90 52 00
        E 615 90 49 37
        E 345 90 49 00
        E 615 90 48 4f
        E 345 90 48 00
        E 135 90 48 38
        E 345 90 48 00
        E 615 90 48 44
        E 345 90 48 00
        E 615 90 52 37
        E 345 90 52 00
        E 135 90 49 4d
        E 345 90 49 00
        E 615 90 49 34
        E 345 90 49 00
        E 615 90 48 40
        E 345 90 48 00
        E 615 90 52 37
        E 345 90 52 00
        E 135 90 52 4c
        E 345 90 52 00
        E 615 90 52 35
        E 345 90 52 00
        E 615 90 49 44
        E 345 90 49 00
        E 135 90 48 38
        E 345 90 48 00
        E 615 90 48 4e
        E 345 90 48 00
        E 615 90 52 36
        E 345 90 52 00
        E 615 90 49 40
        E 345 90 49 00
        E 139 90 49 37
        E 341 90 49 00
        E 615 90 49 4f
        E 345 90 49 00
        E 615 90 48 37
        E 345 90 48 00
        E 135 90 52 43
        E 345 90 52 00
        E 615 90 52 36
        E 345 90 52 00
        E 615 90 49 4e
        E 345 90 49 00
        E 617 90 48 35
        E 343 90 48 00
        E 135 90 48 44
        E 345 90 48 00
        E 615 90 48 38
        E 345 90 48 00
        E 615 90 52 4c
        E 345 90 52 00
        E 135 90 49 37
        E 345 90 49 00
        E 615 90 49 43
        E 345 90 49 00
        E 615 90 48 37
        E 345 90 48 00
        E 615 90 52 4c
        E 345 90 52 00
        E 135 90 52 37
        E 345 90 52 00
        E 615 90 52 44
        E 345 90 52 00
        E 615 90 49 37
        E 345 90 49 00
        E 135 90 48 4c
        E 345 90 48 00
        E 615 90 48 38
        E 345 90 48 00
        E 615 90 52 40
        E 345 90 52 00
        E 615 90 49 35
        E 345 90 49 00
        E 136 90 49 4f
        E 344 90 49 00
        E 615 90 49 35
        E 345 90 49 00
        E 615 90 48 41
        E 345 90 48 00
        E 135 90 52 36
        E 345 90 52 00
        E 615 90 52 4c
        E 345 90 52 00
        E 617 90 49 35
        E 343 90 49 00
        E 615 90 48 42
        E 345 90 48 00
        E 135 90 48 38
        E 345 90 48 00
        E 622 90 48 4f
        E 338 90 48 00
        E 615 90 52 34
        E 345 90 52 00
        E 136 90 49 44
        E 344 90 49 00
        E 615 90 49 34
        E 345 90 49 00
        E 615 90 48 4d
        E 345 90 48 00
        E 615 90 52 34
        E 345 90 52 00
        E 135 90 52 42
        E 345 90 52 00
        E 615 90 52 37
        E 345 90 52 00
        E 615 90 49 4d
        E 345 90 49 00
        E 135 90 48 38
        E 345 90 48 00
        E 615 90 48 40
        E 345 90 48 00
        E 615 90 52 34
        E 345 90 52 00
        E 615 90 49 50
        E 345 90 49 00
        E 135 90 49 37
        E 345 90 49 00
        E 615 90 49 44
        E 345 90 49 00
        E 615 90 48 37
        E 345 90 48 00
        E 135 90 52 4e
        E 346 90 52 00
        E 614 90 52 38
        E 345 90 52 00
        E 615 90 49 41
        E 345 90 49 00
        E 615 90 48 37
        E 345 90 48 00
        E 135 90 48 4e
        E 345 90 48 00
        E 615 90 48 36
        E 345 90 48 00
        E 615 90 52 41
        E 345 90 52 00
        E 135 90 49 37
        E 345 90 49 00
        E 615 90 49 4e
        E 345 90 49 00
        E 615 90 48 37
        E 345 90 48 00
        E 617 90 52 43
        E 343 90 52 00
        E 135 90 52 37
        E 345 90 52 00
        E 617 90 52 4e
        E 343 90 52 00
        E 615 90 49 35
        E 345 90 49 00
        E 135 90 48 42
        E 345 90 48 00
        E 615 90 48 35
        E 345 90 48 00
        E 615 90 52 4d
        E 345 90 52 00
        E 615 90 49 36
        E 345 90 49 00
        E 135 90 49 44
        E 345 90 49 00
        E 615 90 49 35
        E 345 90 49 00
        E 619 90 48 4e
        E 341 90 48 00
        E 135 90 52 38
        E 345 90 52 00
        E 615 90 52 43
        E 345 90 52 00
        E 615 90 49 36
        E 345 90 49 00
        E 615 90 48 4d
        E 345 90 48 00
        E 135 90 48 37
        E 345 90 48 00
        E 615 90 48 42
        E 345 90 48 00
        E 615 90 52 36
        E 345 90 52 00
        E 135 90 49 4c
        E 345 90 49 00
        E 615 90 49 36
        E 345 90 49 00
        E 615 90 48 44
        E 345 90 48 00
        E 615 90 52 34
        E 345 90 52 00
        E 142 90 52 4e
        E 338 90 52 00
        E 615 90 52 35
        E 345 90 52 00
        E 615 90 49 44
        E 345 90 49 00
        E 135 90 48 37
        E 345 90 48 00
        E 615 90 48 4e
        E 345 90 48 00
        E 615 90 52 38
        E 346 90 52 00
        E 614 90 49 40
        E 346 90 49 00
        E 134 90 49 36
        E 346 90 49 00
        E 614 90 49 4d
        E 345 90 49 00
        E 615 90 48 36
        E 345 90 48 00
        E 135 90 52 40
        E 346 90 52 00
        E 614 90 52 34
        E 345 90 52 00
        E 615 90 49 50
        E 346 90 49 00
        E 614 90 48 35
        E 346 90 48 00
        E 134 90 48 43
        E 346 90 48 00
        E 614 90 48 35
        E 346 90 48 00
        E 614 90 52 50
        E 345 90 52 00
        E 135 90 49 34
        E 345 90 49 00
        E 615 90 49 42
        E 346 90 49 00
        E 614 90 48 35
        E 345 90 48 00
        E 615 90 52 50
        E 345 90 52 00
        E 135 90 52 34
        E 346 90 52 00
        E 614 90 52 41
        E 346 90 52 00
        E 614 90 49 34
        E 346 90 49 00
        E 134 90 48 4e
        E 346 90 48 00
        E 614 90 48 38
        E 346 90 48 00
        E 614 90 52 40
        E 346 90 52 00
        E 614 90 49 37
        E 345 90 49 00
        E 135 90 49 4c
        E 346 90 49 00
        E 614 90 49 37
        E 346 90 49 00
        E 614 90 48 44
        E 346 90 48 00
        E 134 90 52 34
        E 346 90 52 00
        E 614 90 52 50
        E 346 90 52 00
        E 614 90 49 38
        E 346 90 49 00
        E 614 90 48 43
        E 346 90 48 00
        E 134 90 48 38
        E 346 90 48 00
        E 614 90 48 4f
        E 346 90 48 00
        E 614 90 52 38
        E 346 90 52 00
        E 134 90 49 43
        E 346 90 49 00
        E 614 90 49 38
        E 346 90 49 00
        E 614 90 48 4d
        E 346 90 48 00
        E 614 90 52 36
        E 346 90 52 00
        E 134 90 52 43
        E 346 90 52 00
        E 614 90 52 34
        E 346 90 52 00
        E 614 90 49 4e
        E 346 90 49 00
        E 134 90 48 34
        E 346 90 48 00
        E 617 90 48 43
        E 343 90 48 00
        E 614 90 52 38
        E 346 90 52 00
        E 614 90 49 4f
        E 346 90 49 00
        E 135 90 49 35
        E 345 90 49 00
        E 614 90 49 43
        E 346 90 49 00
        E 614 90 48 37
        E 346 90 48 00
        E 134 90 52 4f
        E 346 90 52 00
        E 614 90 52 37
        E 346 90 52 00
        E 615 90 49 43
        E 345 90 49 00
        E 614 90 48 36
        E 346 90 48 00
        E 134 90 50 4d
        E 346 90 50 00
        E 614 90 50 38
        E 346 90 50 00
        E 614 90 52 43
        E 346 90 52 00
        E 134 90 49 38
        E 346 90 49 00
        E 614 90 49 50
        E 346 90 49 00
        E 614 90 50 36
        E 346 90 50 00
        E 618 90 52 44
        E 342 90 52 00
        E 134 90 52 35
        E 346 90 52 00
        E 614 90 52 50
        E 346 90 52 00
        E 614 90 49 37
        E 346 90 49 00
        E 134 90 50 40
        E 346 90 50 00
        E 615 90 50 36
        E 345 90 50 00
        E 614 90 52 4e
        E 346 90 52 00
        E 614 90 49 37
        E 346 90 49 00
        E 134 90 49 40
        E 346 90 49 00
        E 614 90 49 35
        E 346 90 49 00
        E 614 90 50 4d
        E 346 90 50 00
        E 134 90 52 35
        E 346 90 52 00
        E 614 90 52 43
        E 346 90 52 00
        E 615 90 49 38
        E 345 90 49 00
        E 614 90 50 4d
        E 346 90 50 00
        E 135 90 50 34
        E 345 90 50 00
        E 614 90 50 42
        E 346 90 50 00
        E 614 90 52 35
        E 346 90 52 00
        E 134 90 49 4d
        E 346 90 49 00
        E 614 90 49 37
        E 346 90 49 00
        E 614 90 50 42
        E 346 90 50 00
        E 614 90 52 35
        E 346 90 52 00
        E 134 90 52 4d
        E 345 90 52 00
        E 617 90 52 35
        E 344 90 52 00
        E 614 90 49 42
        E 346 90 49 00
        E 134 90 50 37
        E 346 90 50 00
        E 614 90 50 4c
        E 346 90 50 00
        E 614 90 52 35
        E 346 90 52 00
        E 614 90 49 41
        E 346 90 49 00
        E 134 90 49 34
        E 346 90 49 00
        E 614 90 49 4c
        E 346 90 49 00
        E 617 90 50 35
        E 343 90 50 00
        E 134 90 52 40
        E 346 90 52 00
        E 615 90 52 34
        E 344 90 52 00
        E 615 90 49 4c
        E 346 90 49 00
        E 614 90 50 34
        E 346 90 50 00
        E 134 90 50 44
        E 346 90 50 00
        E 614 90 50 37
        E 346 90 50 00
        E 614 90 52 4c
        E 346 90 52 00
        E 134 90 49 35
        E 346 90 49 00
        E 614 90 49 44
        E 346 90 49 00
        E 618 90 50 34
        E 342 90 50 00
        E 614 90 52 50
        E 346 90 52 00
        E 134 90 52 35
        E 346 90 52 00
        E 614 90 52 40
        E 346 90 52 00
        E 614 90 49 38
        E 346 90 49 00
        E 134 90 50 4f
        E 346 90 50 00
        E 614 90 50 36
        E 346 90 50 00
        E 614 90 52 40
        E 346 90 52 00
        E 616 90 49 36
        E 344 90 49 00
        E 134 90 49 50
        E 346 90 49 00
        E 615 90 49 36
        E 345 90 49 00
        E 614 90 50 43
        E 346 90 50 00
        E 134 90 52 34
        E 346 90 52 00
        E 614 90 52 50
        E 346 90 52 00
        E 614 90 49 34
        E 346 90 49 00
        E 614 90 50 40
        E 346 90 50 00
        E 134 90 50 38
        E 346 90 50 00
        E 614 90 50 50
        E 346 90 50 00
        E 623 90 52 35
        E 336 90 52 00
        E 135 90 49 43
        E 346 90 49 00
        E 614 90 49 36
        E 346 90 49 00
        E 614 90 50 4e
        E 346 90 50 00
        E 614 90 52 37
        E 346 90 52 00
        E 134 90 52 42
        E 346 90 52 00
        E 614 90 52 35
        E 346 90 52 00
        E 614 90 49 4e
        E 346 90 49 00
        E 134 90 50 37
        E 346 90 50 00
        E 614 90 50 42
        E 346 90 50 00
        E 614 90 52 37
        E 346 90 52 00
        E 614 90 49 4c
        E 345 90 49 00
        E 135 90 49 36
        E 346 90 49 00
        E 614 90 49 44
        E 346 90 49 00
        E 614 90 50 35
        E 346 90 50 00
        E 134 90 52 4e
        E 346 90 52 00
        E 614 90 52 35
        E 346 90 52 00
        E 614 90 49 42
        E 346 90 49 00
        E 614 90 50 34
        E 346 90 50 00
        E 134 90 50 4f
        E 346 90 50 00
        E 614 90 50 37
        E 346 90 50 00
        E 614 90 52 41
        E 346 90 52 00
        E 134 90 49 37
        E 346 90 49 00
        E 614 90 49 4f
        E 346 90 49 00
        E 614 90 50 38
        E 346 90 50 00
        E 614 90 52 44
        E 346 90 52 00
        E 134 90 52 35
        E 346 90 52 00
        E 614 90 52 4f
        E 346 90 52 00
        E 614 90 49 37
        E 346 90 49 00
        E 134 90 50 44
        E 346 90 50 00
        E 614 90 50 34
        E 346 90 50 00
        E 614 90 52 50
        E 346 90 52 00
        E 614 90 49 36
        E 346 90 49 00
        E 134 90 49 41
        E 346 90 49 00
        E 614 90 49 36
        E 346 90 49 00
        E 614 90 50 50
        E 346 90 50 00
        E 134 90 52 38
        E 346 90 52 00
        E 614 90 52 42
        E 346 90 52 00
        E 614 90 49 34
        E 346 90 49 00
        E 614 90 50 4f
        E 346 90 50 00
        E 134 90 50 34
        E 346 90 50 00
        E 614 90 50 44
        E 346 90 50 00
        E 614 90 52 37
        E 346 90 52 00
        E 136 90 49 4c
        E 344 90 49 00
        E 614 90 49 35
        E 346 90 49 00
        E 614 90 50 43
        E 346 90 50 00
        E 614 90 52 37
        E 346 90 52 00
        E 134 90 52 50
        E 346 90 52 00
        E 614 90 52 38
        E 346 90 52 00
        E 614 90 49 41
        E 346 90 49 00
        E 134 90 50 37
        E 346 90 50 00
        E 615 90 50 50
        E 345 90 50 00
        E 614 90 52 38
        E 346 90 52 00
        E 614 90 49 41
        E 346 90 49 00
        E 134 90 49 36
        E 346 90 49 00
        E 614 90 49 50
        E 346 90 49 00
        E 614 90 50 35
        E 346 90 50 00
        E 134 90 52 42
        E 346 90 52 00
        E 614 90 52 36
        E 346 90 52 00
        E 614 90 49 4c
        E 346 90 49 00
        E 614 90 50 34
        E 346 90 50 00
        E 138 90 50 43
        E 342 90 50 00
        E 614 90 50 34
        E 346 90 50 00
        E 614 90 52 4f
        E 346 90 52 00
        E 134 90 49 38
        E 346 90 49 00
        E 614 90 49 40
        E 346 90 49 00
        E 614 90 50 38
        E 346 90 50 00
        E 614 90 52 4e
        E 346 90 52 00
        E 134 90 52 35
        E 346 90 52 00
        E 616 90 52 42
        E 344 90 52 00
        E 614 90 49 35
        E 346 90 49 00
        E 134 90 50 50
        E 346 90 50 00
        E 614 90 50 38
        E 346 90 50 00
        E 614 90 52 41
        E 346 90 52 00
        E 614 90 49 36
        E 346 90 49 00
        E 134 90 49 4c
        E 345 90 49 00
        E 615 90 49 37
        E 346 90 49 00
        E 615 90 50 41
        E 345 90 50 00
        E 134 90 52 34
        E 346 90 52 00
        E 616 90 52 50
        E 344 90 52 00
        E 614 90 49 35
        E 346 90 49 00
        E 614 90 50 40
        E 346 90 50 00
        E 134 90 50 34
        E 346 90 50 00
        E 614 90 50 50
        E 346 90 50 00
        E 614 90 52 37
        E 346 90 52 00
        E 134 90 49 42
        E 346 90 49 00
        E 614 90 49 37
        E 346 90 49 00
        E 614 90 50 50
        E 346 90 50 00
        E 614 90 52 35
        E 346 90 52 00
        E 136 90 52 42
        E 344 90 52 00
        E 614 90 52 37
        E 346 90 52 00
        E 614 90 49 4f
        E 346 90 49 00
        E 134 90 50 36
        E 346 90 50 00
        E 614 90 50 40
        E 346 90 50 00
        E 614 90 52 38
        E 346 90 52 00
        E 618 90 49 4f
        E 342 90 49 00
        E 134 90 49 34
        E 346 90 49 00
        E 614 90 49 44
        E 346 90 49 00
        E 614 90 50 34
        E 346 90 50 00
        E 134 90 52 4c
        E 346 90 52 00
        E 614 90 52 35
        E 346 90 52 00
        E 614 90 49 44
        E 346 90 49 00
        E 614 90 50 34
        E 346 90 50 00
        E 134 90 50 4f
        E 346 90 50 00
        E 18330 b0 7b 00
        CCINTERP 32
        CHASE_CC_TAKEOFFS 1
        GUID {FEE332B2-60F1-814B-910A-53F9515C6E54}
        IGNTEMPO 0 120 4 4
        SRCCOLOR 227
        EVTFILTER 0 -1 -1 -1 -1 0 0 0 0 -1 -1 -1 -1 0 -1 0 -1 -1
      >
    >
  >
  <TRACK {18CD7DA3-6BAF-5A48-89AF-93ECA4A2F706}
    NAME 2
    PEAKCOL 16576
    BEAT -1
    AUTOMODE 0
    PANLAWFLAGS 3
    VOLPAN 1 0 -1 -1 1
    MUTESOLO 0 0 0
    IPHASE 0
    PLAYOFFS 0 1
    ISBUS 0 0
    BUSCOMP 0 0 0 0 0
    SHOWINMIX 1 0.6667 0.5 1 0.5 0 0 0
    FIXEDLANES 9 0 0 0 0
    SEL 0
    REC 1 4162 0 0 0 0 0 0
    VU 64
    TRACKHEIGHT 0 0 0 0 0 0 0
    INQ 0 0 0 0.5 100 0 0 100
    NCHAN 2
    FX 1
    TRACKID {18CD7DA3-6BAF-5A48-89AF-93ECA4A2F706}
    PERF 0
    MIDIOUT -1
    MAINSEND 1 0
    <ITEM
      POSITION 0
      SNAPOFFS 0
      LENGTH 230.4838481711358
      LOOP 1
      ALLTAKES 0
      FADEIN 1 0 0 1 0 0 0
      FADEOUT 1 0 0 1 0 0 0
      MUTE 0 0
      SEL 0
      IGUID {E8253F1B-650A-2045-89CC-ED871185D006}
      IID 26
      NAME 02-2-MIDI
      VOLPAN 1 0 1 -1
      SOFFS 0 0
      PLAYRATE 1 1 0 -1 0 0.0025
      CHANMODE 0
      GUID {AB960DC7-7E70-3541-909E-92B3937F4F69}
      RECPASS 19
      <SOURCE MIDI
        HASDATA 1 960 QN
        CCINTERP 32
        POOLEDEVTS {BE68C7D2-7362-9149-A5AF-0C6FFA620CF3}
        E 957 91 3c 38
        E 346 91 3c 00
        E 4454 91 3e 50
        E 346 91 3e 00
        E 1574 91 3e 37
        E 346 91 3e 00
        E 1574 91 43 4e
        E 346 91 43 00
        E 1574 91 3c 40
        E 346 91 3c 00
        E 614 91 3c 4d
        E 346 91 3c 00
        E 4454 91 3e 40
        E 346 91 3e 00
        E 1574 91 3e 4e
        E 346 91 3e 00
        E 1574 91 43 35
        E 346 91 43 00
        E 1574 91 3c 4d
        E 346 91 3c 00
        E 614 91 3c 44
        E 346 91 3c 00
        E 4454 91 3e 4c
        E 346 91 3e 00
        E 1574 91 3e 44
        E 346 91 3e 00
        E 1574 91 43 4c
        E 346 91 43 00
        E 1574 91 3c 38
        E 346 91 3c 00
        E 614 91 3c 50
        E 346 91 3c 00
        E 4454 91 3e 38
        E 346 91 3e 00
        E 1574 91 3e 4c
        E 346 91 3e 00
        E 4454 91 3c 34
        E 346 91 3c 00
        E 1574 91 46 4c
        E 346 91 46 00
        E 1574 91 46 43
        E 346 91 46 00
        E 614 91 3e 50
        E 346 91 3e 00
        E 1574 91 3e 35
        E 346 91 3e 00
        E 1574 91 43 50
        E 346 91 43 00
        E 1574 91 3c 42
        E 346 91 3c 00
        E 614 91 3c 4e
        E 346 91 3c 00
        E 1574 91 46 37
        E 346 91 46 00
        E 1574 91 46 4e
        E 346 91 46 00
        E 614 91 3e 44
        E 346 91 3e 00
        E 1574 91 3e 4f
        E 346 91 3e 00
        E 1574 91 43 36
        E 346 91 43 00
        E 1574 91 3c 4e
        E 346 91 3c 00
        E 614 91 3c 43
        E 346 91 3c 00
        E 1574 91 46 50
        E 346 91 46 00
        E 1574 91 46 37
        E 346 91 46 00
        E 614 91 3e 4d
        E 346 91 3e 00
        E 1574 91 3e 40
        E 346 91 3e 00
        E 1574 91 43 4d
        E 346 91 43 00
        E 1574 91 3c 35
        E 346 91 3c 00
        E 614 91 3c 4f
        E 346 91 3c 00
        E 1574 91 46 44
        E 346 91 46 00
        E 1574 91 46 4f
        E 346 91 46 00
        E 614 91 3e 35
        E 346 91 3e 00
        E 1574 91 3e 50
        E 346 91 3e 00
        E 1574 91 43 44
        E 346 91 43 00
        E 1574 91 3c 50
        E 346 91 3c 00
        E 614 91 3c 34
        E 346 91 3c 00
        E 1574 91 46 4f
        E 346 91 46 00
        E 1574 91 46 40
        E 346 91 46 00
        E 614 91 3e 4f
        E 346 91 3e 00
        E 1574 91 3e 34
        E 346 91 3e 00
        E 1574 91 43 4d
        E 346 91 43 00
        E 1574 91 3c 42
        E 346 91 3c 00
        E 614 91 3c 4f
        E 346 91 3c 00
        E 1574 91 46 37
        E 346 91 46 00
        E 1574 91 46 4c
        E 346 91 46 00
        E 614 91 3e 41
        E 346 91 3e 00
        E 1574 91 3e 4d
        E 346 91 3e 00
        E 1574 91 43 38
        E 346 91 43 00
        E 1574 91 3c 4e
        E 346 91 3c 00
        E 614 91 3c 40
        E 346 91 3c 00
        E 1574 91 46 4c
        E 346 91 46 00
        E 1574 91 46 38
        E 346 91 46 00
        E 614 91 3e 50
        E 346 91 3e 00
        E 1574 91 3e 43
        E 346 91 3e 00
        E 1574 91 43 50
        E 346 91 43 00
        E 1574 91 3c 38
        E 346 91 3c 00
        E 614 91 3c 4f
        E 346 91 3c 00
        E 1574 91 46 44
        E 346 91 46 00
        E 1574 91 46 4e
        E 346 91 46 00
        E 615 91 3e 38
        E 345 91 3e 00
        E 1574 91 3e 4d
        E 346 91 3e 00
        E 1574 91 43 41
        E 346 91 43 00
        E 1574 91 3c 4c
        E 346 91 3c 00
        E 614 91 3c 34
        E 346 91 3c 00
        E 1574 91 46 4e
        E 346 91 46 00
        E 1574 91 46 40
        E 346 91 46 00
        E 614 91 3e 4f
        E 346 91 3e 00
        E 1574 91 3e 35
        E 346 91 3e 00
        E 1574 91 43 4e
        E 346 91 43 00
        E 1574 91 3c 42
        E 346 91 3c 00
        E 614 91 3c 4c
        E 346 91 3c 00
        E 1574 91 46 36
        E 346 91 46 00
        E 1574 91 46 4c
        E 346 91 46 00
        E 615 91 3e 40
        E 345 91 3e 00
        E 1574 91 3e 50
        E 346 91 3e 00
        E 1574 91 43 36
        E 346 91 43 00
        E 1574 91 3c 50
        E 346 91 3c 00
        E 614 91 3c 43
        E 346 91 3c 00
        E 1574 91 46 50
        E 346 91 46 00
        E 1574 91 46 34
        E 346 91 46 00
        E 614 91 3e 50
        E 346 91 3e 00
        E 1574 91 3e 40
        E 346 91 3e 00
        E 1575 91 43 4c
        E 345 91 43 00
        E 1574 91 3c 36
        E 346 91 3c 00
        E 614 91 3c 4c
        E 346 91 3c 00
        E 1576 91 46 42
        E 344 91 46 00
        E 1574 91 46 4e
        E 346 91 46 00
        E 614 91 3e 36
        E 346 91 3e 00
        E 1574 91 3e 4d
        E 346 91 3e 00
        E 1574 91 43 44
        E 346 91 43 00
        E 1574 91 3c 50
        E 346 91 3c 00
        E 614 91 3c 34
        E 346 91 3c 00
        E 1574 91 46 4f
        E 346 91 46 00
        E 1574 91 46 42
        E 346 91 46 00
        E 614 91 3e 4c
        E 346 91 3e 00
        E 1575 91 3e 37
        E 345 91 3e 00
        E 1574 91 43 4e
        E 346 91 43 00
        E 1574 91 3c 41
        E 346 91 3c 00
        E 614 91 3c 4e
        E 346 91 3c 00
        E 1576 91 46 34
        E 344 91 46 00
        E 1574 91 46 4c
        E 346 91 46 00
        E 615 91 3e 43
        E 345 91 3e 00
        E 1574 91 3e 4d
        E 346 91 3e 00
        E 1575 91 43 36
        E 345 91 43 00
        E 1574 91 3c 50
        E 346 91 3c 00
        E 614 91 3c 41
        E 346 91 3c 00
        E 1574 91 46 4f
        E 346 91 46 00
        E 1576 91 46 34
        E 344 91 46 00
        E 614 91 3e 4e
        E 346 91 3e 00
        E 1574 91 3e 44
        E 346 91 3e 00
        E 1574 91 43 4d
        E 346 91 43 00
        E 1574 91 3c 36
        E 346 91 3c 00
        E 614 91 3c 4c
        E 346 91 3c 00
        E 1574 91 46 41
        E 346 91 46 00
        E 1574 91 46 4e
        E 346 91 46 00
        E 614 91 3e 35
        E 346 91 3e 00
        E 1574 91 3e 4f
        E 346 91 3e 00
        E 1574 91 43 41
        E 346 91 43 00
        E 1575 91 3c 4e
        E 345 91 3c 00
        E 614 91 3c 38
        E 346 91 3c 00
        E 1575 91 46 4d
        E 345 91 46 00
        E 1577 91 46 42
        E 343 91 46 00
        E 615 91 3e 50
        E 345 91 3e 00
        E 1575 91 3e 37
        E 345 91 3e 00
        E 1575 91 43 4f
        E 345 91 43 00
        E 1577 91 3c 41
        E 343 91 3c 00
        E 614 91 3c 4c
        E 346 91 3c 00
        E 1574 91 46 34
        E 346 91 46 00
        E 1575 91 46 4d
        E 345 91 46 00
        E 615 91 3e 42
        E 345 91 3e 00
        E 1575 91 3e 50
        E 345 91 3e 00
        E 1575 91 43 37
        E 345 91 43 00
        E 1575 91 3c 4f
        E 345 91 3c 00
        E 615 91 3c 41
        E 345 91 3c 00
        E 1575 91 46 50
        E 345 91 46 00
        E 1575 91 46 37
        E 345 91 46 00
        E 615 91 3e 4c
        E 345 91 3e 00
        E 1575 91 3e 42
        E 345 91 3e 00
        E 1575 91 43 4d
        E 345 91 43 00
        E 1575 91 3c 38
        E 345 91 3c 00
        E 615 91 3c 4e
        E 345 91 3c 00
        E 1575 91 46 43
        E 345 91 46 00
        E 1575 91 46 4c
        E 345 91 46 00
        E 615 91 3e 38
        E 345 91 3e 00
        E 1575 91 3e 50
        E 345 91 3e 00
        E 1575 91 43 40
        E 345 91 43 00
        E 1575 91 3c 50
        E 345 91 3c 00
        E 615 91 3c 38
        E 345 91 3c 00
        E 1575 91 46 4f
        E 345 91 46 00
        E 1575 91 46 43
        E 345 91 46 00
        E 615 91 3e 4f
        E 345 91 3e 00
        E 1575 91 3e 35
        E 345 91 3e 00
        E 1575 91 43 4d
        E 345 91 43 00
        E 1575 91 3c 40
        E 345 91 3c 00
        E 615 91 3c 4d
        E 345 91 3c 00
        E 1575 91 46 38
        E 345 91 46 00
        E 1575 91 46 4d
        E 345 91 46 00
        E 615 91 3e 41
        E 345 91 3e 00
        E 1575 91 3e 4f
        E 345 91 3e 00
        E 1575 91 43 36
        E 345 91 43 00
        E 1575 91 3c 4f
        E 345 91 3c 00
        E 615 91 3c 43
        E 345 91 3c 00
        E 1575 91 46 4d
        E 345 91 46 00
        E 1575 91 46 38
        E 345 91 46 00
        E 615 91 3e 4e
        E 345 91 3e 00
        E 1575 91 3e 40
        E 345 91 3e 00
        E 1575 91 43 4d
        E 345 91 43 00
        E 1575 91 3c 37
        E 345 91 3c 00
        E 615 91 3c 4f
        E 345 91 3c 00
        E 1575 91 46 42
        E 345 91 46 00
        E 1575 91 46 4d
        E 345 91 46 00
        E 615 91 3e 36
        E 345 91 3e 00
        E 1575 91 3e 50
        E 345 91 3e 00
        E 1575 91 43 44
        E 345 91 43 00
        E 1575 91 3c 4d
        E 345 91 3c 00
        E 615 91 3c 35
        E 345 91 3c 00
        E 1575 91 46 50
        E 345 91 46 00
        E 1575 91 46 41
        E 345 91 46 00
        E 618 91 3e 4f
        E 342 91 3e 00
        E 1575 91 3e 38
        E 345 91 3e 00
        E 1575 91 43 4e
        E 345 91 43 00
        E 1575 91 3c 41
        E 345 91 3c 00
        E 615 91 3c 50
        E 345 91 3c 00
        E 1574 91 46 37
        E 346 91 46 00
        E 1575 91 46 4d
        E 345 91 46 00
        E 615 91 3e 43
        E 345 91 3e 00
        E 1575 91 3e 4c
        E 345 91 3e 00
        E 1575 91 43 36
        E 345 91 43 00
        E 1575 91 3c 4f
        E 345 91 3c 00
        E 615 91 3c 43
        E 345 91 3c 00
        E 1575 91 46 4e
        E 345 91 46 00
        E 1575 91 46 38
        E 345 91 46 00
        E 615 91 3e 50
        E 345 91 3e 00
        E 1575 91 3e 41
        E 345 91 3e 00
        E 1575 91 43 4f
        E 345 91 43 00
        E 1575 91 3c 38
        E 345 91 3c 00
        E 615 91 3c 50
        E 345 91 3c 00
        E 1575 91 46 43
        E 345 91 46 00
        E 1575 91 46 4f
        E 345 91 46 00
        E 615 91 3e 38
        E 345 91 3e 00
        E 1578 91 3e 4c
        E 342 91 3e 00
        E 1575 91 43 42
        E 345 91 43 00
        E 1575 91 3c 4e
        E 345 91 3c 00
        E 138855 91 3c 34
        E 346 91 3c 00
        E 1574 91 46 4c
        E 346 91 46 00
        E 1574 91 46 41
        E 346 91 46 00
        E 614 91 3d 50
        E 346 91 3d 00
        E 1574 91 3d 38
        E 346 91 3d 00
        E 1574 91 43 4c
        E 346 91 43 00
        E 1574 91 3c 43
        E 346 91 3c 00
        E 614 91 3c 4e
        E 346 91 3c 00
        E 1574 91 46 35
        E 346 91 46 00
        E 1574 91 46 4c
        E 346 91 46 00
        E 614 91 3d 42
        E 346 91 3d 00
        E 1574 91 3d 50
        E 346 91 3d 00
        E 1574 91 43 37
        E 346 91 43 00
        E 1574 91 3c 4c
        E 345 91 3c 00
        E 615 91 3c 40
        E 346 91 3c 00
        E 1574 91 46 4e
        E 346 91 46 00
        E 1574 91 46 37
        E 346 91 46 00
        E 614 91 3d 4c
        E 346 91 3d 00
        E 1574 91 3d 43
        E 346 91 3d 00
        E 1574 91 43 4f
        E 346 91 43 00
        E 1574 91 3c 38
        E 346 91 3c 00
        E 614 91 3c 4c
        E 346 91 3c 00
        E 1576 91 46 41
        E 344 91 46 00
        E 1574 91 46 4e
        E 346 91 46 00
        E 614 91 3d 37
        E 346 91 3d 00
        E 1574 91 3d 4e
        E 346 91 3d 00
        E 1574 91 43 40
        E 346 91 43 00
        E 1574 91 3c 4f
        E 346 91 3c 00
        E 614 91 3c 37
        E 346 91 3c 00
        E 1574 91 46 4c
        E 346 91 46 00
        E 1574 91 46 42
        E 346 91 46 00
        E 614 91 3d 4d
        E 346 91 3d 00
        E 1578 91 3d 34
        E 341 91 3d 00
        E 1575 91 43 4e
        E 346 91 43 00
        E 1574 91 3c 42
        E 346 91 3c 00
        E 614 91 3c 4f
        E 346 91 3c 00
        E 1574 91 46 34
        E 346 91 46 00
        E 1574 91 46 4d
        E 346 91 46 00
        E 614 91 3d 43
        E 346 91 3d 00
        E 1574 91 3d 50
        E 346 91 3d 00
        E 1574 91 43 36
        E 346 91 43 00
        E 1574 91 3c 50
        E 346 91 3c 00
        E 614 91 3c 41
        E 346 91 3c 00
        E 1574 91 46 4e
        E 346 91 46 00
        E 1574 91 46 35
        E 346 91 46 00
        E 614 91 3d 4e
        E 346 91 3d 00
        E 1574 91 3d 42
        E 346 91 3d 00
        E 1574 91 43 50
        E 346 91 43 00
        E 1574 91 3c 36
        E 346 91 3c 00
        E 614 91 3c 4c
        E 346 91 3c 00
        E 1574 91 46 44
        E 346 91 46 00
        E 1574 91 46 50
        E 346 91 46 00
        E 614 91 3d 34
        E 346 91 3d 00
        E 1574 91 3d 4e
        E 346 91 3d 00
        E 1574 91 43 40
        E 346 91 43 00
        E 1574 91 3c 4d
        E 346 91 3c 00
        E 614 91 3c 34
        E 346 91 3c 00
        E 1574 91 46 4d
        E 346 91 46 00
        E 1574 91 46 44
        E 346 91 46 00
        E 614 91 3d 4f
        E 346 91 3d 00
        E 1574 91 3d 35
        E 346 91 3d 00
        E 1574 91 43 4f
        E 346 91 43 00
        E 1574 91 3c 43
        E 346 91 3c 00
        E 614 91 3c 4f
        E 346 91 3c 00
        E 1574 91 46 36
        E 346 91 46 00
        E 1574 91 46 4e
        E 346 91 46 00
        E 614 91 3d 44
        E 346 91 3d 00
        E 1574 91 3d 4e
        E 346 91 3d 00
        E 1574 91 43 35
        E 346 91 43 00
        E 1574 91 3c 4c
        E 345 91 3c 00
        E 615 91 3c 43
        E 346 91 3c 00
        E 1574 91 46 4e
        E 346 91 46 00
        E 1574 91 46 35
        E 346 91 46 00
        E 614 91 3d 4f
        E 346 91 3d 00
        E 1574 91 3d 42
        E 346 91 3d 00
        E 1574 91 43 4e
        E 346 91 43 00
        E 1574 91 3c 35
        E 346 91 3c 00
        E 614 91 3c 4d
        E 346 91 3c 00
        E 1574 91 46 44
        E 346 91 46 00
        E 1574 91 46 4f
        E 346 91 46 00
        E 614 91 3d 34
        E 346 91 3d 00
        E 1574 91 3d 4c
        E 346 91 3d 00
        E 1574 91 43 44
        E 346 91 43 00
        E 1574 91 3c 4f
        E 346 91 3c 00
        E 18330 b0 7b 00
        CCINTERP 32
        CHASE_CC_TAKEOFFS 1
        GUID {7EC0634E-62AC-FA40-9E17-C026E4B75686}
        IGNTEMPO 0 120 4 4
        SRCCOLOR 228
        EVTFILTER 0 -1 -1 -1 -1 0 0 0 0 -1 -1 -1 -1 0 -1 0 -1 -1
      >
    >
  >
  <TRACK {8E7DB631-55BC-304C-AB85-C8A650FC8709}
    NAME 3
    PEAKCOL 16576
    BEAT -1
    AUTOMODE 0
    PANLAWFLAGS 3
    VOLPAN 1 0 -1 -1 1
    MUTESOLO 0 0 0
    IPHASE 0
    PLAYOFFS 0 1
    ISBUS 0 0
    BUSCOMP 0 0 0 0 0
    SHOWINMIX 1 0.6667 0.5 1 0.5 0 0 0
    FIXEDLANES 9 0 0 0 0
    SEL 0
    REC 1 4163 0 0 0 0 0 0
    VU 64
    TRACKHEIGHT 0 0 0 0 0 0 0
    INQ 0 0 0 0.5 100 0 0 100
    NCHAN 2
    FX 1
    TRACKID {8E7DB631-55BC-304C-AB85-C8A650FC8709}
    PERF 0
    MIDIOUT -1
    MAINSEND 1 0
    <ITEM
      POSITION 0
      SNAPOFFS 0
      LENGTH 230.4838481711358
      LOOP 1
      ALLTAKES 0
      FADEIN 1 0 0 1 0 0 0
      FADEOUT 1 0 0 1 0 0 0
      MUTE 0 0
      SEL 0
      IGUID {AAAD1DD5-C0AB-1D4B-87FC-4A9861E0D539}
      IID 27
      NAME 03-3-MIDI
      VOLPAN 1 0 1 -1
      SOFFS 0 0
      PLAYRATE 1 1 0 -1 0 0.0025
      CHANMODE 0
      GUID {59449703-5754-B048-8164-15CA3E57BB21}
      RECPASS 19
      <SOURCE MIDI
        HASDATA 1 960 QN
        CCINTERP 32
        POOLEDEVTS {4CFCC71C-9E9F-BA44-B8B8-1DA4E4AF3EE8}
        E 2877 92 32 3d
        E 346 92 32 00
        E 1574 92 35 32
        E 346 92 35 00
        E 1574 92 37 40
        E 346 92 37 00
        E 4454 92 32 3e
        E 346 92 32 00
        E 1574 92 35 35
        E 346 92 35 00
        E 614 92 37 3d
        E 346 92 37 00
        E 1574 92 30 36
        E 346 92 30 00
        E 6374 92 32 3f
        E 346 92 32 00
        E 1574 92 35 36
        E 346 92 35 00
        E 614 92 37 48
        E 346 92 37 00
        E 5414 92 32 3c
        E 346 92 32 00
        E 614 92 35 33
        E 346 92 35 00
        E 1574 92 37 49
        E 346 92 37 00
        E 1574 92 30 3c
        E 346 92 30 00
        E 6374 92 32 48
        E 346 92 32 00
        E 7334 92 32 48
        E 346 92 32 00
        E 1575 92 35 3d
        E 345 92 35 00
        E 1574 92 37 35
        E 346 92 37 00
        E 614 92 30 3c
        E 346 92 30 00
        E 6374 92 32 33
        E 346 92 32 00
        E 1574 92 35 40
        E 346 92 35 00
        E 1574 92 37 34
        E 346 92 37 00
        E 4454 92 32 33
        E 346 92 32 00
        E 614 92 35 40
        E 346 92 35 00
        E 1574 92 37 32
        E 346 92 37 00
        E 1574 92 30 49
        E 346 92 30 00
        E 6374 92 32 33
        E 346 92 32 00
        E 614 92 35 48
        E 346 92 35 00
        E 1574 92 37 3d
        E 346 92 37 00
        E 4454 92 32 35
        E 346 92 32 00
        E 1574 92 35 48
        E 346 92 35 00
        E 1574 92 37 3e
        E 346 92 37 00
        E 614 92 30 34
        E 346 92 30 00
        E 6374 92 32 3c
        E 346 92 32 00
        E 1574 92 35 35
        E 346 92 35 00
        E 1574 92 37 3e
        E 346 92 37 00
        E 4454 92 32 3c
        E 346 92 32 00
        E 1574 92 35 32
        E 346 92 35 00
        E 614 92 37 3c
        E 346 92 37 00
        E 1574 92 30 36
        E 346 92 30 00
        E 6374 92 32 40
        E 346 92 32 00
        E 1574 92 35 36
        E 346 92 35 00
        E 614 92 37 47
        E 346 92 37 00
        E 4454 92 32 3f
        E 346 92 32 00
        E 1574 92 35 36
        E 346 92 35 00
        E 1574 92 37 49
        E 346 92 37 00
        E 1574 92 30 3f
        E 346 92 30 00
        E 96615 92 35 49
        E 345 92 35 00
        E 615 92 37 3d
        E 345 92 37 00
        E 1577 92 30 35
        E 343 92 30 00
        E 4455 92 32 48
        E 345 92 32 00
        E 1577 92 35 3d
        E 343 92 35 00
        E 1575 92 37 35
        E 345 92 37 00
        E 6375 92 32 3e
        E 345 92 32 00
        E 615 92 35 36
        E 345 92 35 00
        E 1575 92 37 3e
        E 345 92 37 00
        E 1575 92 30 32
        E 345 92 30 00
        E 4455 92 32 34
        E 345 92 32 00
        E 1575 92 35 3f
        E 345 92 35 00
        E 615 92 37 32
        E 345 92 37 00
        E 6375 92 32 3e
        E 345 92 32 00
        E 1575 92 35 35
        E 345 92 35 00
        E 1575 92 37 48
        E 345 92 37 00
        E 615 92 30 3e
        E 345 92 30 00
        E 4455 92 32 36
        E 345 92 32 00
        E 1575 92 35 46
        E 345 92 35 00
        E 1575 92 37 40
        E 345 92 37 00
        E 6375 92 32 46
        E 345 92 32 00
        E 615 92 35 3c
        E 345 92 35 00
        E 1575 92 37 34
        E 345 92 37 00
        E 1575 92 30 3f
        E 345 92 30 00
        E 4455 92 32 3f
        E 345 92 32 00
        E 1575 92 35 34
        E 345 92 35 00
        E 615 92 37 3f
        E 345 92 37 00
        E 6375 92 32 36
        E 345 92 32 00
        E 1575 92 35 3e
        E 345 92 35 00
        E 1575 92 37 34
        E 345 92 37 00
        E 615 92 30 49
        E 345 92 30 00
        E 5415 92 32 3f
        E 345 92 32 00
        E 615 92 35 36
        E 345 92 35 00
        E 1575 92 37 48
        E 345 92 37 00
        E 6375 92 32 34
        E 345 92 32 00
        E 1575 92 35 46
        E 345 92 35 00
        E 615 92 37 3e
        E 345 92 37 00
        E 1575 92 30 34
        E 345 92 30 00
        E 4455 92 32 47
        E 345 92 32 00
        E 1575 92 35 3d
        E 345 92 35 00
        E 1575 92 37 32
        E 345 92 37 00
        E 5415 92 32 3d
        E 345 92 32 00
        E 1575 92 35 33
        E 345 92 35 00
        E 1575 92 37 3d
        E 345 92 37 00
        E 1575 92 30 36
        E 345 92 30 00
        E 4455 92 32 33
        E 345 92 32 00
        E 615 92 35 3c
        E 345 92 35 00
        E 1575 92 37 32
        E 345 92 37 00
        E 6375 92 32 3c
        E 345 92 32 00
        E 1575 92 35 33
        E 345 92 35 00
        E 618 92 37 49
        E 342 92 37 00
        E 1575 92 30 40
        E 345 92 30 00
        E 4455 92 32 33
        E 345 92 32 00
        E 1575 92 35 47
        E 345 92 35 00
        E 1575 92 37 3f
        E 345 92 37 00
        E 6375 92 32 46
        E 345 92 32 00
        E 615 92 35 3d
        E 345 92 35 00
        E 1575 92 37 35
        E 345 92 37 00
        E 1575 92 30 3c
        E 345 92 30 00
        E 4455 92 32 3c
        E 345 92 32 00
        E 1575 92 35 34
        E 345 92 35 00
        E 615 92 37 40
        E 345 92 37 00
        E 6378 92 32 33
        E 342 92 32 00
        E 1575 92 35 3c
        E 345 92 35 00
        E 1575 92 37 32
        E 345 92 37 00
        E 615 92 30 49
        E 345 92 30 00
        E 4455 92 32 3d
        E 345 92 32 00
        E 1575 92 35 34
        E 345 92 35 00
        E 1575 92 37 46
        E 345 92 37 00
        E 6375 92 32 35
        E 345 92 32 00
        E 615 92 35 4a
        E 345 92 35 00
        E 1575 92 37 3f
        E 345 92 37 00
        E 1575 92 30 35
        E 345 92 30 00
        E 4455 92 32 48
        E 345 92 32 00
        E 1575 92 35 3c
        E 345 92 35 00
        E 615 92 37 35
        E 345 92 37 00
        E 6375 92 32 3d
        E 345 92 32 00
        E 1575 92 35 32
        E 345 92 35 00
        E 1576 92 37 3e
        E 344 92 37 00
        E 615 92 30 36
        E 345 92 30 00
        E 5421 92 32 34
        E 339 92 32 00
        E 615 92 35 40
        E 345 92 35 00
        E 1575 92 37 35
        E 345 92 37 00
        E 6375 92 32 3f
        E 345 92 32 00
        E 1575 92 35 34
        E 346 92 35 00
        E 614 92 37 46
        E 345 92 37 00
        E 1575 92 30 40
        E 346 92 30 00
        E 4455 92 32 36
        E 344 92 32 00
        E 1575 92 35 49
        E 346 92 35 00
        E 1574 92 37 3c
        E 346 92 37 00
        E 5414 92 32 47
        E 345 92 32 00
        E 1575 92 35 3c
        E 346 92 35 00
        E 1574 92 37 36
        E 346 92 37 00
        E 1574 92 30 3e
        E 346 92 30 00
        E 4454 92 32 3d
        E 346 92 32 00
        E 614 92 35 36
        E 346 92 35 00
        E 1574 92 37 40
        E 346 92 37 00
        E 6374 92 32 34
        E 346 92 32 00
        E 156570 b0 7b 00
        CCINTERP 32
        CHASE_CC_TAKEOFFS 1
        GUID {3F8E4C44-CD54-BE45-9E66-7B49016C13EB}
        IGNTEMPO 0 120 4 4
        SRCCOLOR 229
        EVTFILTER 0 -1 -1 -1 -1 0 0 0 0 -1 -1 -1 -1 0 -1 0 -1 -1
      >
    >
  >
  <TRACK {1B18FE5B-1B41-1446-B8B6-21393D7BA782}
    NAME 4
    PEAKCOL 16576
    BEAT -1
    AUTOMODE 0
    PANLAWFLAGS 3
    VOLPAN 1 0 -1 -1 1
    MUTESOLO 0 0 0
    IPHASE 0
    PLAYOFFS 0 1
    ISBUS 0 0
    BUSCOMP 0 0 0 0 0
    SHOWINMIX 1 0.6667 0.5 1 0.5 0 0 0
    FIXEDLANES 9 0 0 0 0
    SEL 0
    REC 1 4165 0 0 0 0 0 0
    VU 64
    TRACKHEIGHT 0 0 0 0 0 0 0
    INQ 0 0 0 0.5 100 0 0 100
    NCHAN 2
    FX 1
    TRACKID {1B18FE5B-1B41-1446-B8B6-21393D7BA782}
    PERF 0
    MIDIOUT -1
    MAINSEND 1 0
    <ITEM
      POSITION 0
      SNAPOFFS 0
      LENGTH 230.4838481711358
      LOOP 1
      ALLTAKES 0
      FADEIN 1 0 0 1 0 0 0
      FADEOUT 1 0 0 1 0 0 0
      MUTE 0 0
      SEL 0
      IGUID {A31B5465-9117-F04A-BE3E-3A8A9A6E10AF}
      IID 28
      NAME 04-4-MIDI
      VOLPAN 1 0 1 -1
      SOFFS 0 0
      PLAYRATE 1 1 0 -1 0 0.0025
      CHANMODE 0
      GUID {9785B9B8-F33D-404C-9C32-CA463FDE275E}
      RECPASS 19
      <SOURCE MIDI
        HASDATA 1 960 QN
        CCINTERP 32
        POOLEDEVTS {ADC06DDF-8627-AD49-A695-507D7E5A9B89}
        E 23037 94 37 51
        E 346 94 37 00
        E 134 94 3a 46
        E 346 94 3a 00
        E 2054 94 3e 54
        E 346 94 3e 00
        E 1094 94 3c 48
        E 346 94 3c 00
        E 134 94 37 3d
        E 346 94 37 00
        E 1094 94 3a 46
        E 346 94 3a 00
        E 2054 94 3e 40
        E 346 94 3e 00
        E 134 94 3c 4a
        E 346 94 3c 00
        E 1094 94 37 52
        E 346 94 37 00
        E 134 94 3a 46
        E 346 94 3a 00
        E 2054 94 3e 50
        E 346 94 3e 00
        E 1094 94 3c 46
        E 346 94 3c 00
        E 134 94 37 3d
        E 346 94 37 00
        E 134 94 3a 46
        E 346 94 3a 00
        E 3014 94 3e 40
        E 346 94 3e 00
        E 134 94 3c 49
        E 346 94 3c 00
        E 134 94 37 51
        E 346 94 37 00
        E 3494 94 3e 53
        E 346 94 3e 00
        E 134 94 3c 4a
        E 346 94 3c 00
        E 1094 94 37 3d
        E 346 94 37 00
        E 134 94 3a 49
        E 346 94 3a 00
        E 2054 94 3e 3c
        E 346 94 3e 00
        E 1094 94 3c 46
        E 346 94 3c 00
        E 134 94 37 51
        E 346 94 37 00
        E 1094 94 3a 46
        E 346 94 3a 00
        E 2054 94 3e 54
        E 346 94 3e 00
        E 134 94 3c 47
        E 346 94 3c 00
        E 1094 94 37 3f
        E 346 94 37 00
        E 134 94 3a 46
        E 346 94 3a 00
        E 2054 94 3e 3d
        E 346 94 3e 00
        E 1094 94 3c 47
        E 346 94 3c 00
        E 134 94 37 50
        E 346 94 37 00
        E 134 94 3a 48
        E 346 94 3a 00
        E 3014 94 3e 52
        E 346 94 3e 00
        E 134 94 3c 49
        E 346 94 3c 00
        E 134 94 37 3d
        E 346 94 37 00
        E 1094 94 3a 46
        E 346 94 3a 00
        E 2054 94 3e 3d
        E 346 94 3e 00
        E 134 94 3c 48
        E 346 94 3c 00
        E 1094 94 37 50
        E 346 94 37 00
        E 134 94 3a 47
        E 346 94 3a 00
        E 2054 94 3e 51
        E 346 94 3e 00
        E 1094 94 3c 46
        E 346 94 3c 00
        E 134 94 37 3e
        E 346 94 37 00
        E 1094 94 3a 49
        E 346 94 3a 00
        E 2054 94 3e 40
        E 346 94 3e 00
        E 134 94 3c 4a
        E 346 94 3c 00
        E 1094 94 37 54
        E 346 94 37 00
        E 134 94 3a 4a
        E 346 94 3a 00
        E 2054 94 3e 54
        E 346 94 3e 00
        E 1094 94 3c 4a
        E 346 94 3c 00
        E 134 94 37 40
        E 346 94 37 00
        E 134 94 3a 4a
        E 346 94 3a 00
        E 3014 94 3e 3c
        E 346 94 3e 00
        E 134 94 3c 49
        E 346 94 3c 00
        E 134 94 37 51
        E 346 94 37 00
        E 1094 94 3a 47
        E 346 94 3a 00
        E 2054 94 3e 51
        E 346 94 3e 00
        E 134 94 3c 46
        E 346 94 3c 00
        E 1094 94 37 3c
        E 346 94 37 00
        E 134 94 3a 48
        E 346 94 3a 00
        E 2054 94 3e 3c
        E 346 94 3e 00
        E 1094 94 3c 48
        E 346 94 3c 00
        E 134 94 37 52
        E 346 94 37 00
        E 1094 94 3a 4a
        E 346 94 3a 00
        E 2054 94 3e 54
        E 346 94 3e 00
        E 134 94 3c 4a
        E 346 94 3c 00
        E 1094 94 37 3d
        E 346 94 37 00
        E 134 94 3a 47
        E 346 94 3a 00
        E 2054 94 3e 3d
        E 346 94 3e 00
        E 1094 94 3c 48
        E 346 94 3c 00
        E 134 94 37 53
        E 346 94 37 00
        E 134 94 3a 48
        E 346 94 3a 00
        E 3014 94 3e 50
        E 346 94 3e 00
        E 134 94 3c 4a
        E 346 94 3c 00
        E 134 94 37 3c
        E 346 94 37 00
        E 1094 94 3a 46
        E 346 94 3a 00
        E 2054 94 3e 3d
        E 346 94 3e 00
        E 134 94 3c 48
        E 346 94 3c 00
        E 1094 94 37 51
        E 346 94 37 00
        E 134 94 3a 46
        E 346 94 3a 00
        E 2054 94 3e 54
        E 346 94 3e 00
        E 1094 94 3c 48
        E 346 94 3c 00
        E 134 94 37 40
        E 346 94 37 00
        E 1094 94 3a 48
        E 346 94 3a 00
        E 2054 94 3e 3e
        E 346 94 3e 00
        E 134 94 3c 47
        E 346 94 3c 00
        E 1094 94 37 54
        E 346 94 37 00
        E 134 94 3a 48
        E 346 94 3a 00
        E 2054 94 3e 50
        E 346 94 3e 00
        E 1094 94 3c 46
        E 346 94 3c 00
        E 134 94 37 3c
        E 346 94 37 00
        E 134 94 3a 47
        E 346 94 3a 00
        E 3014 94 3e 3f
        E 346 94 3e 00
        E 134 94 3c 48
        E 346 94 3c 00
        E 134 94 37 54
        E 346 94 37 00
        E 1094 94 3a 47
        E 346 94 3a 00
        E 2054 94 3e 51
        E 346 94 3e 00
        E 134 94 3c 48
        E 346 94 3c 00
        E 1094 94 37 3f
        E 346 94 37 00
        E 134 94 3a 49
        E 346 94 3a 00
        E 2054 94 3e 3e
        E 346 94 3e 00
        E 1094 94 3c 46
        E 346 94 3c 00
        E 134 94 37 51
        E 346 94 37 00
        E 1094 94 3a 49
        E 346 94 3a 00
        E 2054 94 3e 52
        E 346 94 3e 00
        E 134 94 3c 4a
        E 346 94 3c 00
        E 1094 94 37 40
        E 346 94 37 00
        E 134 94 3a 48
        E 346 94 3a 00
        E 2054 94 3e 3f
        E 346 94 3e 00
        E 1094 94 3c 4a
        E 346 94 3c 00
        E 134 94 37 51
        E 346 94 37 00
        E 134 94 3a 49
        E 346 94 3a 00
        E 3014 94 3e 51
        E 346 94 3e 00
        E 134 94 3c 47
        E 346 94 3c 00
        E 134 94 37 3d
        E 346 94 37 00
        E 1094 94 3a 4a
        E 346 94 3a 00
        E 2054 94 3e 3d
        E 346 94 3e 00
        E 134 94 3c 47
        E 346 94 3c 00
        E 1094 94 37 54
        E 346 94 37 00
        E 134 94 3a 48
        E 346 94 3a 00
        E 2054 94 3e 51
        E 346 94 3e 00
        E 1094 94 3c 48
        E 346 94 3c 00
        E 134 94 37 3d
        E 346 94 37 00
        E 1094 94 3a 46
        E 346 94 3a 00
        E 2054 94 3e 40
        E 346 94 3e 00
        E 134 94 3c 48
        E 346 94 3c 00
        E 1094 94 37 50
        E 346 94 37 00
        E 134 94 3a 46
        E 346 94 3a 00
        E 2054 94 3e 53
        E 346 94 3e 00
        E 1094 94 3c 46
        E 346 94 3c 00
        E 134 94 37 3d
        E 346 94 37 00
        E 134 94 3a 47
        E 346 94 3a 00
        E 3014 94 3e 3e
        E 346 94 3e 00
        E 134 94 3c 47
        E 346 94 3c 00
        E 134 94 37 54
        E 346 94 37 00
        E 1094 94 3a 48
        E 346 94 3a 00
        E 2054 94 3e 54
        E 346 94 3e 00
        E 134 94 3c 4a
        E 346 94 3c 00
        E 1094 94 37 3f
        E 346 94 37 00
        E 134 94 3a 47
        E 346 94 3a 00
        E 2054 94 3e 3f
        E 346 94 3e 00
        E 1094 94 3c 4a
        E 346 94 3c 00
        E 134 94 37 54
        E 346 94 37 00
        E 1094 94 3a 48
        E 346 94 3a 00
        E 2054 94 3e 53
        E 346 94 3e 00
        E 134 94 3c 47
        E 346 94 3c 00
        E 1094 94 37 3f
        E 346 94 37 00
        E 134 94 3a 48
        E 346 94 3a 00
        E 2054 94 3e 3e
        E 346 94 3e 00
        E 1094 94 3c 46
        E 346 94 3c 00
        E 134 94 37 51
        E 346 94 37 00
        E 134 94 3a 4a
        E 346 94 3a 00
        E 3014 94 3e 51
        E 346 94 3e 00
        E 134 94 3c 49
        E 346 94 3c 00
        E 134 94 37 40
        E 346 94 37 00
        E 1094 94 3a 47
        E 346 94 3a 00
        E 2055 94 3e 3f
        E 345 94 3e 00
        E 134 94 3c 4a
        E 346 94 3c 00
        E 1095 94 37 50
        E 345 94 37 00
        E 134 94 3a 49
        E 346 94 3a 00
        E 2055 94 3e 50
        E 345 94 3e 00
        E 1094 94 3c 46
        E 346 94 3c 00
        E 134 94 37 40
        E 346 94 37 00
        E 1094 94 3a 48
        E 346 94 3a 00
        E 2055 94 3e 3e
        E 345 94 3e 00
        E 134 94 3c 47
        E 346 94 3c 00
        E 1095 94 37 54
        E 345 94 37 00
        E 135 94 3a 46
        E 345 94 3a 00
        E 2055 94 3e 53
        E 345 94 3e 00
        E 1095 94 3c 46
        E 345 94 3c 00
        E 135 94 37 3e
        E 345 94 37 00
        E 135 94 3a 4a
        E 345 94 3a 00
        E 3015 94 3e 3c
        E 345 94 3e 00
        E 135 94 3c 48
        E 345 94 3c 00
        E 135 94 37 53
        E 345 94 37 00
        E 1095 94 3a 46
        E 345 94 3a 00
        E 2055 94 3e 52
        E 345 94 3e 00
        E 135 94 3c 46
        E 345 94 3c 00
        E 1095 94 37 3e
        E 345 94 37 00
        E 135 94 3a 46
        E 345 94 3a 00
        E 2055 94 3e 3d
        E 345 94 3e 00
        E 1095 94 3c 48
        E 345 94 3c 00
        E 135 94 37 51
        E 345 94 37 00
        E 1095 94 3a 4a
        E 345 94 3a 00
        E 2055 94 3e 50
        E 345 94 3e 00
        E 135 94 3c 4a
        E 345 94 3c 00
        E 1095 94 37 40
        E 345 94 37 00
        E 135 94 3a 49
        E 345 94 3a 00
        E 2055 94 3e 40
        E 345 94 3e 00
        E 1095 94 3c 48
        E 345 94 3c 00
        E 135 94 37 51
        E 345 94 37 00
        E 135 94 3a 47
        E 345 94 3a 00
        E 3014 94 3e 52
        E 346 94 3e 00
        E 135 94 3c 49
        E 345 94 3c 00
        E 135 94 37 3c
        E 345 94 37 00
        E 1095 94 3a 4a
        E 345 94 3a 00
        E 2055 94 3e 3d
        E 345 94 3e 00
        E 135 94 3c 4a
        E 345 94 3c 00
        E 1095 94 37 51
        E 345 94 37 00
        E 135 94 3a 48
        E 345 94 3a 00
        E 2055 94 3e 52
        E 345 94 3e 00
        E 1095 94 3c 4a
        E 345 94 3c 00
        E 135 94 37 3c
        E 345 94 37 00
        E 1095 94 3a 4a
        E 345 94 3a 00
        E 2055 94 3e 3f
        E 345 94 3e 00
        E 135 94 3c 47
        E 345 94 3c 00
        E 1095 94 37 50
        E 345 94 37 00
        E 135 94 3a 48
        E 345 94 3a 00
        E 2055 94 3e 54
        E 345 94 3e 00
        E 1094 94 3c 47
        E 346 94 3c 00
        E 135 94 37 3d
        E 345 94 37 00
        E 135 94 3a 48
        E 345 94 3a 00
        E 3015 94 3e 3d
        E 345 94 3e 00
        E 135 94 3c 4a
        E 345 94 3c 00
        E 135 94 37 50
        E 345 94 37 00
        E 1095 94 3a 47
        E 345 94 3a 00
        E 2055 94 3e 50
        E 345 94 3e 00
        E 136 94 3c 46
        E 344 94 3c 00
        E 1095 94 37 3d
        E 345 94 37 00
        E 135 94 3a 4a
        E 345 94 3a 00
        E 2055 94 3e 3e
        E 345 94 3e 00
        E 1095 94 3c 4a
        E 345 94 3c 00
        E 135 94 37 52
        E 345 94 37 00
        E 1095 94 3a 48
        E 345 94 3a 00
        E 2055 94 3e 51
        E 345 94 3e 00
        E 135 94 3c 47
        E 345 94 3c 00
        E 1095 94 37 3c
        E 345 94 37 00
        E 135 94 3a 47
        E 345 94 3a 00
        E 2055 94 3e 3c
        E 345 94 3e 00
        E 1095 94 3c 4a
        E 345 94 3c 00
        E 135 94 37 51
        E 345 94 37 00
        E 135 94 3a 49
        E 345 94 3a 00
        E 3015 94 3e 52
        E 345 94 3e 00
        E 134 94 3c 47
        E 346 94 3c 00
        E 135 94 37 3e
        E 345 94 37 00
        E 1095 94 3a 47
        E 345 94 3a 00
        E 2055 94 3e 3d
        E 345 94 3e 00
        E 135 94 3c 49
        E 345 94 3c 00
        E 1095 94 37 50
        E 345 94 37 00
        E 135 94 3a 49
        E 345 94 3a 00
        E 2054 94 3e 53
        E 346 94 3e 00
        E 1095 94 3c 4a
        E 345 94 3c 00
        E 135 94 37 3d
        E 345 94 37 00
        E 1095 94 3a 49
        E 345 94 3a 00
        E 2055 94 3e 3c
        E 345 94 3e 00
        E 136 94 3c 46
        E 344 94 3c 00
        E 1095 94 37 52
        E 345 94 37 00
        E 135 94 3a 4a
        E 345 94 3a 00
        E 2055 94 3e 53
        E 345 94 3e 00
        E 1095 94 3c 47
        E 345 94 3c 00
        E 135 94 37 3f
        E 345 94 37 00
        E 135 94 3a 48
        E 345 94 3a 00
        E 3015 94 3e 3d
        E 345 94 3e 00
        E 135 94 3c 49
        E 345 94 3c 00
        E 135 94 37 52
        E 345 94 37 00
        E 1095 94 3a 46
        E 345 94 3a 00
        E 2055 94 3e 52
        E 345 94 3e 00
        E 134 94 3c 4a
        E 346 94 3c 00
        E 1095 94 37 3c
        E 345 94 37 00
        E 135 94 3a 4a
        E 345 94 3a 00
        E 2055 94 3e 3f
        E 345 94 3e 00
        E 1095 94 3c 47
        E 345 94 3c 00
        E 135 94 37 50
        E 345 94 37 00
        E 1095 94 3a 49
        E 345 94 3a 00
        E 2055 94 3e 51
        E 345 94 3e 00
        E 135 94 3c 48
        E 345 94 3c 00
        E 1095 94 37 40
        E 345 94 37 00
        E 135 94 3a 4a
        E 345 94 3a 00
        E 2055 94 3e 3f
        E 345 94 3e 00
        E 1095 94 3c 49
        E 345 94 3c 00
        E 135 94 37 51
        E 345 94 37 00
        E 135 94 3a 47
        E 345 94 3a 00
        E 3015 94 3e 50
        E 345 94 3e 00
        E 135 94 3c 47
        E 345 94 3c 00
        E 135 94 37 40
        E 345 94 37 00
        E 1095 94 3a 4a
        E 345 94 3a 00
        E 2055 94 3e 3e
        E 345 94 3e 00
        E 135 94 3c 49
        E 345 94 3c 00
        E 1095 94 37 52
        E 345 94 37 00
        E 135 94 3a 4a
        E 345 94 3a 00
        E 2055 94 3e 53
        E 345 94 3e 00
        E 1095 94 3c 49
        E 345 94 3c 00
        E 135 94 37 3e
        E 345 94 37 00
        E 1095 94 3a 47
        E 345 94 3a 00
        E 2055 94 3e 3f
        E 345 94 3e 00
        E 135 94 3c 46
        E 345 94 3c 00
        E 1095 94 37 51
        E 345 94 37 00
        E 135 94 3a 49
        E 345 94 3a 00
        E 2055 94 3e 50
        E 345 94 3e 00
        E 1095 94 3c 46
        E 345 94 3c 00
        E 135 94 37 3f
        E 345 94 37 00
        E 135 94 3a 47
        E 345 94 3a 00
        E 3015 94 3e 40
        E 345 94 3e 00
        E 135 94 3c 4a
        E 345 94 3c 00
        E 135 94 37 53
        E 345 94 37 00
        E 1095 94 3a 47
        E 345 94 3a 00
        E 2055 94 3e 52
        E 345 94 3e 00
        E 135 94 3c 48
        E 345 94 3c 00
        E 1095 94 37 40
        E 345 94 37 00
        E 135 94 3a 4a
        E 345 94 3a 00
        E 2055 94 3e 40
        E 345 94 3e 00
        E 1095 94 3c 49
        E 345 94 3c 00
        E 135 94 37 53
        E 345 94 37 00
        E 1095 94 3a 49
        E 345 94 3a 00
        E 2055 94 40 54
        E 345 94 40 00
        E 135 94 3c 4a
        E 345 94 3c 00
        E 1095 94 37 40
        E 345 94 37 00
        E 135 94 3a 48
        E 345 94 3a 00
        E 2055 94 40 40
        E 345 94 40 00
        E 1095 94 3c 4a
        E 345 94 3c 00
        E 135 94 37 52
        E 345 94 37 00
        E 135 94 3a 4a
        E 345 94 3a 00
        E 3015 94 40 54
        E 345 94 40 00
        E 135 94 3c 46
        E 345 94 3c 00
        E 135 94 37 40
        E 345 94 37 00
        E 1095 94 3a 48
        E 345 94 3a 00
        E 2055 94 40 3f
        E 345 94 40 00
        E 135 94 3c 46
        E 345 94 3c 00
        E 1095 94 37 51
        E 345 94 37 00
        E 135 94 3a 48
        E 345 94 3a 00
        E 2055 94 40 51
        E 345 94 40 00
        E 1095 94 3c 48
        E 345 94 3c 00
        E 135 94 37 3f
        E 345 94 37 00
        E 1095 94 3a 48
        E 345 94 3a 00
        E 2055 94 40 3e
        E 345 94 40 00
        E 135 94 3c 47
        E 345 94 3c 00
        E 1095 94 37 53
        E 345 94 37 00
        E 135 94 3a 4a
        E 345 94 3a 00
        E 2055 94 40 50
        E 345 94 40 00
        E 1095 94 3c 46
        E 345 94 3c 00
        E 135 94 37 3f
        E 345 94 37 00
        E 135 94 3a 49
        E 345 94 3a 00
        E 3015 94 40 3d
        E 345 94 40 00
        E 135 94 3c 47
        E 345 94 3c 00
        E 138 94 37 53
        E 342 94 37 00
        E 1095 94 3a 48
        E 345 94 3a 00
        E 2055 94 41 50
        E 345 94 41 00
        E 135 94 40 46
        E 345 94 40 00
        E 1095 94 37 3e
        E 345 94 37 00
        E 135 94 3a 49
        E 345 94 3a 00
        E 2055 94 41 3f
        E 346 94 41 00
        E 1094 94 40 46
        E 345 94 40 00
        E 135 94 37 54
        E 345 94 37 00
        E 1095 94 3a 46
        E 345 94 3a 00
        E 2055 94 41 50
        E 346 94 41 00
        E 134 94 40 4a
        E 346 94 40 00
        E 1094 94 37 3c
        E 345 94 37 00
        E 135 94 3a 46
        E 345 94 3a 00
        E 2055 94 41 3e
        E 345 94 41 00
        E 1095 94 40 47
        E 345 94 40 00
        E 135 94 37 51
        E 346 94 37 00
        E 134 94 3a 46
        E 346 94 3a 00
        E 3014 94 41 53
        E 345 94 41 00
        E 135 94 40 48
        E 345 94 40 00
        E 135 94 37 3f
        E 346 94 37 00
        E 1094 94 3a 49
        E 346 94 3a 00
        E 2054 94 41 3e
        E 346 94 41 00
        E 134 94 40 48
        E 346 94 40 00
        E 1094 94 37 50
        E 346 94 37 00
        E 134 94 3a 47
        E 345 94 3a 00
        E 2055 94 41 54
        E 346 94 41 00
        E 1094 94 40 47
        E 346 94 40 00
        E 134 94 37 3e
        E 346 94 37 00
        E 1094 94 3a 49
        E 346 94 3a 00
        E 2054 94 41 3f
        E 346 94 41 00
        E 134 94 40 47
        E 346 94 40 00
        E 1094 94 37 54
        E 346 94 37 00
        E 134 94 3a 46
        E 346 94 3a 00
        E 2054 94 41 50
        E 346 94 41 00
        E 1094 94 40 47
        E 346 94 40 00
        E 134 94 37 3d
        E 346 94 37 00
        E 134 94 3a 46
        E 346 94 3a 00
        E 3014 94 41 3c
        E 346 94 41 00
        E 134 94 40 4a
        E 346 94 40 00
        E 134 94 37 52
        E 346 94 37 00
        E 1094 94 3a 4a
        E 346 94 3a 00
        E 2054 94 41 51
        E 346 94 41 00
        E 134 94 40 4a
        E 346 94 40 00
        E 1094 94 37 3d
        E 346 94 37 00
        E 134 94 3a 48
        E 346 94 3a 00
        E 2054 94 41 3d
        E 346 94 41 00
        E 1094 94 40 49
        E 346 94 40 00
        E 134 94 37 54
        E 346 94 37 00
        E 1094 94 3a 47
        E 346 94 3a 00
        E 2054 94 41 52
        E 346 94 41 00
        E 134 94 40 48
        E 346 94 40 00
        E 1094 94 37 3e
        E 346 94 37 00
        E 134 94 3a 49
        E 346 94 3a 00
        E 2054 94 41 40
        E 346 94 41 00
        E 1094 94 40 47
        E 346 94 40 00
        E 134 94 37 52
        E 346 94 37 00
        E 134 94 3a 49
        E 346 94 3a 00
        E 3014 94 41 52
        E 346 94 41 00
        E 134 94 40 49
        E 346 94 40 00
        E 134 94 37 3e
        E 346 94 37 00
        E 1094 94 3a 46
        E 346 94 3a 00
        E 2054 94 41 3c
        E 346 94 41 00
        E 134 94 40 46
        E 346 94 40 00
        E 1094 94 37 51
        E 346 94 37 00
        E 134 94 3a 47
        E 346 94 3a 00
        E 2054 94 41 54
        E 346 94 41 00
        E 1094 94 40 49
        E 346 94 40 00
        E 134 94 37 3c
        E 346 94 37 00
        E 1094 94 3a 49
        E 346 94 3a 00
        E 2054 94 41 3c
        E 346 94 41 00
        E 134 94 40 47
        E 346 94 40 00
        E 1094 94 37 54
        E 346 94 37 00
        E 134 94 3a 47
        E 346 94 3a 00
        E 2054 94 41 54
        E 346 94 41 00
        E 1094 94 40 49
        E 346 94 40 00
        E 134 94 37 40
        E 346 94 37 00
        E 134 94 3a 49
        E 346 94 3a 00
        E 3014 94 41 3d
        E 345 94 41 00
        E 135 94 40 47
        E 346 94 40 00
        E 134 94 37 50
        E 346 94 37 00
        E 1094 94 3a 47
        E 346 94 3a 00
        E 2054 94 41 53
        E 346 94 41 00
        E 134 94 40 48
        E 346 94 40 00
        E 1094 94 37 3c
        E 346 94 37 00
        E 134 94 3a 4a
        E 346 94 3a 00
        E 2054 94 41 3d
        E 346 94 41 00
        E 1094 94 40 46
        E 346 94 40 00
        E 134 94 37 50
        E 346 94 37 00
        E 1094 94 3a 48
        E 346 94 3a 00
        E 2054 94 41 52
        E 346 94 41 00
        E 134 94 40 49
        E 346 94 40 00
        E 1094 94 37 3d
        E 346 94 37 00
        E 134 94 3a 49
        E 346 94 3a 00
        E 2054 94 41 3f
        E 346 94 41 00
        E 1094 94 40 4a
        E 346 94 40 00
        E 134 94 37 54
        E 346 94 37 00
        E 134 94 3a 4a
        E 346 94 3a 00
        E 3014 94 41 53
        E 346 94 41 00
        E 134 94 40 4a
        E 346 94 40 00
        E 134 94 37 3c
        E 346 94 37 00
        E 1094 94 3a 47
        E 346 94 3a 00
        E 2054 94 41 3f
        E 345 94 41 00
        E 135 94 40 48
        E 346 94 40 00
        E 1094 94 37 51
        E 346 94 37 00
        E 134 94 3a 4a
        E 346 94 3a 00
        E 2054 94 41 51
        E 346 94 41 00
        E 1094 94 40 48
        E 346 94 40 00
        E 134 94 37 40
        E 346 94 37 00
        E 1094 94 3a 4a
        E 346 94 3a 00
        E 2054 94 41 3e
        E 346 94 41 00
        E 134 94 40 4a
        E 346 94 40 00
        E 1094 94 37 52
        E 346 94 37 00
        E 134 94 3a 48
        E 346 94 3a 00
        E 2054 94 41 51
        E 346 94 41 00
        E 1094 94 40 47
        E 346 94 40 00
        E 134 94 37 3e
        E 346 94 37 00
        E 134 94 3a 48
        E 346 94 3a 00
        E 3014 94 41 40
        E 346 94 41 00
        E 134 94 40 4a
        E 346 94 40 00
        E 134 94 37 54
        E 346 94 37 00
        E 1094 94 3a 4a
        E 346 94 3a 00
        E 2054 94 41 54
        E 346 94 41 00
        E 134 94 40 47
        E 346 94 40 00
        E 1094 94 37 3d
        E 346 94 37 00
        E 134 94 3a 47
        E 346 94 3a 00
        E 2054 94 41 3f
        E 345 94 41 00
        E 1095 94 40 46
        E 346 94 40 00
        E 134 94 37 53
        E 346 94 37 00
        E 1094 94 3a 49
        E 346 94 3a 00
        E 2054 94 41 54
        E 346 94 41 00
        E 134 94 40 47
        E 346 94 40 00
        E 1094 94 37 3f
        E 346 94 37 00
        E 134 94 3a 49
        E 346 94 3a 00
        E 2054 94 41 3c
        E 346 94 41 00
        E 1094 94 40 46
        E 346 94 40 00
        E 134 94 37 50
        E 346 94 37 00
        E 134 94 3a 48
        E 346 94 3a 00
        E 3014 94 41 54
        E 346 94 41 00
        E 134 94 40 49
        E 346 94 40 00
        E 134 94 37 3c
        E 346 94 37 00
        E 1094 94 3a 46
        E 346 94 3a 00
        E 2054 94 41 3c
        E 346 94 41 00
        E 134 94 40 47
        E 346 94 40 00
        E 1094 94 37 53
        E 346 94 37 00
        E 18330 b0 7b 00
        CCINTERP 32
        CHASE_CC_TAKEOFFS 1
        GUID {FABA401E-5963-E74F-BEF2-6FB2F1AB6D3E}
        IGNTEMPO 0 120 4 4
        SRCCOLOR 230
        EVTFILTER 0 -1 -1 -1 -1 0 0 0 0 -1 -1 -1 -1 0 -1 0 -1 -1
      >
    >
  >
  <TRACK {DC1D39A7-C092-D044-8F0B-34A685FE90D9}
    NAME 5
    PEAKCOL 16576
    BEAT -1
    AUTOMODE 0
    PANLAWFLAGS 3
    VOLPAN 1 0 -1 -1 1
    MUTESOLO 0 0 0
    IPHASE 0
    PLAYOFFS 0 1
    ISBUS 0 0
    BUSCOMP 0 0 0 0 0
    SHOWINMIX 1 0.6667 0.5 1 0.5 0 0 0
    FIXEDLANES 9 0 0 0 0
    SEL 0
    REC 1 4164 0 0 0 0 0 0
    VU 64
    TRACKHEIGHT 0 0 0 0 0 0 0
    INQ 0 0 0 0.5 100 0 0 100
    NCHAN 2
    FX 1
    TRACKID {DC1D39A7-C092-D044-8F0B-34A685FE90D9}
    PERF 0
    MIDIOUT -1
    MAINSEND 1 0
    <ITEM
      POSITION 0
      SNAPOFFS 0
      LENGTH 230.4838481711358
      LOOP 1
      ALLTAKES 0
      FADEIN 1 0 0 1 0 0 0
      FADEOUT 1 0 0 1 0 0 0
      MUTE 0 0
      SEL 0
      IGUID {53A8C18F-8A33-8A4B-A69A-9B5FBFA9BDE2}
      IID 29
      NAME 05-5-MIDI
      VOLPAN 1 0 1 -1
      SOFFS 0 0
      PLAYRATE 1 1 0 -1 0 0.0025
      CHANMODE 0
      GUID {AE1A1928-2512-3B44-B329-3161389A942A}
      RECPASS 19
      <SOURCE MIDI
        HASDATA 1 960 QN
        CCINTERP 32
        POOLEDEVTS {FD39FCD1-121E-7645-9324-BEE63569C8D2}
        E 46557 93 32 40
        E 346 93 32 00
        E 2534 93 35 46
        E 346 93 35 00
        E 7334 93 37 3e
        E 346 93 37 00
        E 1574 93 37 48
        E 346 93 37 00
        E 2534 93 30 33
        E 346 93 30 00
        E 7334 93 32 48
        E 346 93 32 00
        E 1574 93 32 33
        E 345 93 32 00
        E 2536 93 35 46
        E 345 93 35 00
        E 7334 93 37 34
        E 346 93 37 00
        E 1574 93 37 4a
        E 346 93 37 00
        E 2534 93 30 40
        E 346 93 30 00
        E 7334 93 32 47
        E 346 93 32 00
        E 1574 93 32 3c
        E 346 93 32 00
        E 2534 93 35 4a
        E 346 93 35 00
        E 7334 93 37 3d
        E 346 93 37 00
        E 1574 93 37 46
        E 346 93 37 00
        E 2534 93 30 35
        E 346 93 30 00
        E 7334 93 32 48
        E 346 93 32 00
        E 1574 93 32 34
        E 346 93 32 00
        E 2534 93 35 48
        E 346 93 35 00
        E 7334 93 37 32
        E 346 93 37 00
        E 1574 93 37 49
        E 346 93 37 00
        E 2534 93 30 3d
        E 346 93 30 00
        E 231975 93 32 47
        E 345 93 32 00
        E 1575 93 32 32
        E 345 93 32 00
        E 2535 93 35 48
        E 345 93 35 00
        E 7335 93 37 36
        E 345 93 37 00
        E 1575 93 37 48
        E 345 93 37 00
        E 2535 93 30 3d
        E 345 93 30 00
        E 7335 93 32 46
        E 345 93 32 00
        E 1575 93 32 3f
        E 345 93 32 00
        E 2535 93 35 47
        E 345 93 35 00
        E 7335 93 37 3e
        E 345 93 37 00
        E 1575 93 37 4a
        E 345 93 37 00
        E 2535 93 30 33
        E 345 93 30 00
        E 7335 93 32 47
        E 345 93 32 00
        E 1575 93 32 34
        E 345 93 32 00
        E 2535 93 35 47
        E 345 93 35 00
        E 7335 93 37 36
        E 345 93 37 00
        E 1575 93 37 4a
        E 345 93 37 00
        E 2535 93 30 40
        E 345 93 30 00
        E 7335 93 32 47
        E 345 93 32 00
        E 1575 93 32 40
        E 345 93 32 00
        E 2535 93 35 47
        E 345 93 35 00
        E 7335 93 37 40
        E 345 93 37 00
        E 1575 93 37 48
        E 345 93 37 00
        E 2535 93 30 32
        E 345 93 30 00
        E 7335 93 32 46
        E 346 93 32 00
        E 1574 93 32 33
        E 346 93 32 00
        E 2534 93 35 48
        E 345 93 35 00
        E 7335 93 37 35
        E 346 93 37 00
        E 1574 93 37 49
        E 345 93 37 00
        E 2535 93 30 3f
        E 346 93 30 00
        E 7334 93 32 46
        E 346 93 32 00
        E 1574 93 32 40
        E 346 93 32 00
        E 2534 93 35 48
        E 346 93 35 00
        E 7334 93 37 3e
        E 346 93 37 00
        E 1574 93 3d 49
        E 345 93 3d 00
        E 2535 93 3c 36
        E 346 93 3c 00
        E 7334 93 38 4a
        E 346 93 38 00
        E 1574 93 38 34
        E 346 93 38 00
        E 2534 93 3a 4a
        E 346 93 3a 00
        E 7334 93 3d 32
        E 346 93 3d 00
        E 1574 93 3d 49
        E 346 93 3d 00
        E 2534 93 3c 3d
        E 346 93 3c 00
        E 7334 93 38 49
        E 346 93 38 00
        E 1574 93 38 3d
        E 346 93 38 00
        E 2534 93 3a 48
        E 346 93 3a 00
        E 7334 93 3d 3c
        E 346 93 3d 00
        E 1574 93 3d 47
        E 346 93 3d 00
        E 2534 93 3c 32
        E 346 93 3c 00
        E 7334 93 38 49
        E 346 93 38 00
        E 1574 93 38 36
        E 346 93 38 00
        E 2534 93 3a 49
        E 346 93 3a 00
        E 7334 93 3d 34
        E 346 93 3d 00
        E 1574 93 3d 4a
        E 346 93 3d 00
        E 2534 93 3c 3c
        E 346 93 3c 00
        E 7334 93 38 47
        E 346 93 38 00
        E 1574 93 38 40
        E 346 93 38 00
        E 2534 93 3a 4a
        E 346 93 3a 00
        E 7334 93 3d 3d
        E 346 93 3d 00
        E 1574 93 3d 48
        E 346 93 3d 00
        E 2534 93 3c 34
        E 346 93 3c 00
        E 7334 93 38 47
        E 346 93 38 00
        E 1574 93 38 34
        E 346 93 38 00
        E 2534 93 3a 47
        E 346 93 3a 00
        E 7334 93 3d 33
        E 346 93 3d 00
        E 1574 93 3d 47
        E 346 93 3d 00
        E 2534 93 3c 40
        E 346 93 3c 00
        E 7334 93 38 49
        E 346 93 38 00
        E 19770 b0 7b 00
        CCINTERP 32
        CHASE_CC_TAKEOFFS 1
        GUID {E3941303-2CAF-4A4F-ACDC-900ABF6F7B24}
        IGNTEMPO 0 120 4 4
        SRCCOLOR 231
        EVTFILTER 0 -1 -1 -1 -1 0 0 0 0 -1 -1 -1 -1 0 -1 0 -1 -1
      >
    >
  >
  <TRACK {9BDDD541-719F-CB4A-874D-7F194835E8E7}
    NAME 6
    PEAKCOL 16576
    BEAT -1
    AUTOMODE 0
    PANLAWFLAGS 3
    VOLPAN 1 0 -1 -1 1
    MUTESOLO 0 0 0
    IPHASE 0
    PLAYOFFS 0 1
    ISBUS 0 0
    BUSCOMP 0 0 0 0 0
    SHOWINMIX 1 0.6667 0.5 1 0.5 0 0 0
    FIXEDLANES 9 0 0 0 0
    SEL 0
    REC 1 4166 0 0 0 0 0 0
    VU 64
    TRACKHEIGHT 0 0 0 0 0 0 0
    INQ 0 0 0 0.5 100 0 0 100
    NCHAN 2
    FX 1
    TRACKID {9BDDD541-719F-CB4A-874D-7F194835E8E7}
    PERF 0
    MIDIOUT -1
    MAINSEND 1 0
    <ITEM
      POSITION 0
      SNAPOFFS 0
      LENGTH 230.4838481711358
      LOOP 1
      ALLTAKES 0
      FADEIN 1 0 0 1 0 0 0
      FADEOUT 1 0 0 1 0 0 0
      MUTE 0 0
      SEL 0
      IGUID {A78BE8EA-F35E-794F-8AA7-43081E5BF388}
      IID 30
      NAME 06-6-MIDI
      VOLPAN 1 0 1 -1
      SOFFS 0 0
      PLAYRATE 1 1 0 -1 0 0.0025
      CHANMODE 0
      GUID {C18FE2AF-34AE-0B42-B165-2473FF882E2D}
      RECPASS 19
      <SOURCE MIDI
        HASDATA 1 960 QN
        CCINTERP 32
        POOLEDEVTS {519E6B4C-1391-0E44-933F-22A192BFB4B2}
        E 46078 95 45 4a
        E 345 95 45 00
        E 374 95 43 40
        E 346 95 43 00
        E 5414 95 45 48
        E 346 95 45 00
        E 374 95 43 3f
        E 346 95 43 00
        E 5414 95 45 46
        E 346 95 45 00
        E 374 95 43 40
        E 346 95 43 00
        E 5414 95 45 4a
        E 346 95 45 00
        E 374 95 43 3c
        E 346 95 43 00
        E 5414 95 45 47
        E 346 95 45 00
        E 374 95 43 3d
        E 346 95 43 00
        E 5414 95 45 48
        E 346 95 45 00
        E 374 95 43 3f
        E 346 95 43 00
        E 5414 95 45 4a
        E 346 95 45 00
        E 374 95 43 3e
        E 346 95 43 00
        E 5414 95 45 48
        E 346 95 45 00
        E 374 95 43 3f
        E 346 95 43 00
        E 5414 95 45 46
        E 346 95 45 00
        E 374 95 43 3d
        E 346 95 43 00
        E 5414 95 45 4a
        E 346 95 45 00
        E 374 95 43 3c
        E 346 95 43 00
        E 5415 95 45 46
        E 345 95 45 00
        E 374 95 43 3c
        E 346 95 43 00
        E 5414 95 45 49
        E 346 95 45 00
        E 374 95 43 3e
        E 346 95 43 00
        E 5414 95 45 4a
        E 346 95 45 00
        E 374 95 43 3e
        E 346 95 43 00
        E 5414 95 45 46
        E 346 95 45 00
        E 374 95 43 40
        E 346 95 43 00
        E 5414 95 45 4a
        E 346 95 45 00
        E 374 95 43 3c
        E 346 95 43 00
        E 5416 95 45 48
        E 344 95 45 00
        E 374 95 43 3f
        E 346 95 43 00
        E 5414 95 45 4a
        E 346 95 45 00
        E 374 95 43 40
        E 346 95 43 00
        E 5414 95 45 47
        E 346 95 45 00
        E 374 95 43 40
        E 346 95 43 00
        E 5414 95 45 49
        E 346 95 45 00
        E 374 95 43 3d
        E 346 95 43 00
        E 5414 95 45 49
        E 346 95 45 00
        E 374 95 43 3f
        E 346 95 43 00
        E 5418 95 45 49
        E 342 95 45 00
        E 374 95 43 40
        E 346 95 43 00
        E 5414 95 45 49
        E 346 95 45 00
        E 374 95 43 3f
        E 346 95 43 00
        E 5414 95 45 48
        E 346 95 45 00
        E 374 95 43 3e
        E 346 95 43 00
        E 5414 95 45 48
        E 346 95 45 00
        E 374 95 43 3d
        E 346 95 43 00
        E 5415 95 45 4a
        E 345 95 45 00
        E 374 95 43 40
        E 346 95 43 00
        E 5414 95 45 4a
        E 346 95 45 00
        E 374 95 43 40
        E 346 95 43 00
        E 5414 95 45 47
        E 346 95 45 00
        E 374 95 43 3c
        E 346 95 43 00
        E 5414 95 45 46
        E 346 95 45 00
        E 375 95 43 3c
        E 345 95 43 00
        E 5415 95 45 46
        E 345 95 45 00
        E 374 95 43 40
        E 346 95 43 00
        E 5414 95 45 49
        E 346 95 45 00
        E 374 95 43 3f
        E 346 95 43 00
        E 5415 95 45 48
        E 345 95 45 00
        E 375 95 43 3c
        E 345 95 43 00
        E 5415 95 45 48
        E 345 95 45 00
        E 375 95 43 3f
        E 345 95 43 00
        E 5415 95 45 49
        E 345 95 45 00
        E 375 95 43 40
        E 345 95 43 00
        E 5415 95 45 4a
        E 345 95 45 00
        E 375 95 43 3e
        E 345 95 43 00
        E 5414 95 45 49
        E 346 95 45 00
        E 375 95 43 3e
        E 345 95 43 00
        E 5415 95 45 48
        E 345 95 45 00
        E 375 95 43 3e
        E 345 95 43 00
        E 5415 95 45 4a
        E 345 95 45 00
        E 375 95 43 40
        E 345 95 43 00
        E 5415 95 45 48
        E 345 95 45 00
        E 375 95 43 3e
        E 345 95 43 00
        E 5415 95 45 48
        E 345 95 45 00
        E 375 95 43 40
        E 345 95 43 00
        E 5415 95 45 4a
        E 345 95 45 00
        E 375 95 43 40
        E 345 95 43 00
        E 5415 95 45 47
        E 345 95 45 00
        E 375 95 43 3e
        E 345 95 43 00
        E 5415 95 45 4a
        E 345 95 45 00
        E 375 95 43 3f
        E 345 95 43 00
        E 5415 95 45 49
        E 345 95 45 00
        E 375 95 43 40
        E 345 95 43 00
        E 5415 95 45 4a
        E 345 95 45 00
        E 375 95 43 3c
        E 345 95 43 00
        E 5415 95 45 47
        E 345 95 45 00
        E 375 95 43 3c
        E 345 95 43 00
        E 5415 95 45 4a
        E 345 95 45 00
        E 375 95 43 3c
        E 345 95 43 00
        E 5415 95 45 46
        E 345 95 45 00
        E 375 95 43 3f
        E 345 95 43 00
        E 5415 95 45 49
        E 345 95 45 00
        E 379 95 43 3f
        E 341 95 43 00
        E 5415 95 45 47
        E 345 95 45 00
        E 375 95 43 3f
        E 345 95 43 00
        E 5415 95 45 49
        E 345 95 45 00
        E 375 95 43 3f
        E 345 95 43 00
        E 5415 95 45 49
        E 345 95 45 00
        E 375 95 43 3f
        E 345 95 43 00
        E 5415 95 45 46
        E 345 95 45 00
        E 375 95 43 3c
        E 345 95 43 00
        E 5415 95 45 48
        E 345 95 45 00
        E 376 95 43 3f
        E 344 95 43 00
        E 5415 95 45 47
        E 345 95 45 00
        E 375 95 43 3e
        E 345 95 43 00
        E 5415 95 45 49
        E 345 95 45 00
        E 375 95 43 3f
        E 345 95 43 00
        E 5415 95 45 49
        E 345 95 45 00
        E 375 95 43 3e
        E 345 95 43 00
        E 5415 95 45 49
        E 345 95 45 00
        E 375 95 43 40
        E 345 95 43 00
        E 5415 95 45 47
        E 345 95 45 00
        E 375 95 43 3c
        E 345 95 43 00
        E 5415 95 45 46
        E 345 95 45 00
        E 375 95 43 3e
        E 345 95 43 00
        E 5415 95 45 4a
        E 345 95 45 00
        E 375 95 43 3e
        E 345 95 43 00
        E 5415 95 45 49
        E 345 95 45 00
        E 375 95 43 3c
        E 345 95 43 00
        E 5415 95 45 49
        E 345 95 45 00
        E 375 95 43 3c
        E 345 95 43 00
        E 5415 95 45 46
        E 345 95 45 00
        E 375 95 43 40
        E 345 95 43 00
        E 5415 95 45 4a
        E 345 95 45 00
        E 375 95 43 3d
        E 345 95 43 00
        E 5420 95 45 46
        E 340 95 45 00
        E 375 95 3a 40
        E 345 95 3a 00
        E 2535 95 3d 40
        E 345 95 3d 00
        E 375 95 3a 48
        E 346 95 3a 00
        E 1814 95 3d 46
        E 345 95 3d 00
        E 375 95 3a 3e
        E 345 95 3a 00
        E 2535 95 3d 40
        E 346 95 3d 00
        E 374 95 3a 49
        E 346 95 3a 00
        E 1814 95 3d 46
        E 345 95 3d 00
        E 375 95 3a 3d
        E 346 95 3a 00
        E 2534 95 3d 40
        E 346 95 3d 00
        E 374 95 3a 47
        E 346 95 3a 00
        E 1814 95 3d 48
        E 346 95 3d 00
        E 375 95 3a 40
        E 345 95 3a 00
        E 2534 95 3d 3e
        E 346 95 3d 00
        E 374 95 3a 4a
        E 346 95 3a 00
        E 1814 95 3d 4a
        E 345 95 3d 00
        E 375 95 3a 40
        E 346 95 3a 00
        E 2535 95 3d 3d
        E 345 95 3d 00
        E 374 95 3a 47
        E 345 95 3a 00
        E 1815 95 3d 47
        E 346 95 3d 00
        E 374 95 3a 3e
        E 346 95 3a 00
        E 2534 95 3d 3d
        E 346 95 3d 00
        E 374 95 3a 4a
        E 345 95 3a 00
        E 1815 95 3d 49
        E 346 95 3d 00
        E 374 95 3a 3c
        E 346 95 3a 00
        E 2534 95 3d 3f
        E 346 95 3d 00
        E 374 95 3a 48
        E 346 95 3a 00
        E 1814 95 3d 47
        E 346 95 3d 00
        E 374 95 3a 3d
        E 346 95 3a 00
        E 2534 95 3d 40
        E 346 95 3d 00
        E 374 95 3a 48
        E 346 95 3a 00
        E 1814 95 3d 46
        E 346 95 3d 00
        E 374 95 3a 3d
        E 346 95 3a 00
        E 2534 95 3d 3f
        E 346 95 3d 00
        E 374 95 3a 49
        E 346 95 3a 00
        E 1814 95 3d 46
        E 345 95 3d 00
        E 375 95 3a 3c
        E 346 95 3a 00
        E 2534 95 3d 3d
        E 346 95 3d 00
        E 374 95 3a 46
        E 346 95 3a 00
        E 1814 95 3d 4a
        E 346 95 3d 00
        E 374 95 3a 3f
        E 346 95 3a 00
        E 2534 95 3d 3d
        E 346 95 3d 00
        E 374 95 3a 46
        E 345 95 3a 00
        E 1815 95 3d 46
        E 346 95 3d 00
        E 374 95 3a 3f
        E 346 95 3a 00
        E 2534 95 3d 3c
        E 346 95 3d 00
        E 374 95 3a 49
        E 346 95 3a 00
        E 1814 95 3d 48
        E 346 95 3d 00
        E 374 95 3a 3d
        E 346 95 3a 00
        E 2534 95 3d 40
        E 346 95 3d 00
        E 374 95 3a 4a
        E 346 95 3a 00
        E 1814 95 3d 46
        E 346 95 3d 00
        E 376 95 3a 40
        E 344 95 3a 00
        E 2534 95 3d 3f
        E 346 95 3d 00
        E 374 95 3a 4a
        E 346 95 3a 00
        E 1814 95 3d 4a
        E 346 95 3d 00
        E 374 95 3a 3c
        E 346 95 3a 00
        E 2534 95 3d 40
        E 346 95 3d 00
        E 374 95 3a 46
        E 346 95 3a 00
        E 1814 95 3d 47
        E 346 95 3d 00
        E 374 95 3a 40
        E 346 95 3a 00
        E 2534 95 3d 3d
        E 346 95 3d 00
        E 374 95 3a 48
        E 346 95 3a 00
        E 1814 95 3d 46
        E 346 95 3d 00
        E 374 95 3a 3f
        E 346 95 3a 00
        E 2534 95 3d 40
        E 346 95 3d 00
        E 374 95 3a 4a
        E 346 95 3a 00
        E 1814 95 3d 48
        E 346 95 3d 00
        E 374 95 3a 3e
        E 346 95 3a 00
        E 2534 95 3d 3e
        E 346 95 3d 00
        E 374 95 3a 47
        E 346 95 3a 00
        E 1814 95 3d 49
        E 346 95 3d 00
        E 374 95 3a 3c
        E 346 95 3a 00
        E 2534 95 3d 40
        E 346 95 3d 00
        E 374 95 3a 48
        E 346 95 3a 00
        E 1814 95 3d 48
        E 346 95 3d 00
        E 374 95 3a 3e
        E 346 95 3a 00
        E 2534 95 3d 3f
        E 346 95 3d 00
        E 374 95 3a 48
        E 346 95 3a 00
        E 1814 95 3d 49
        E 346 95 3d 00
        E 374 95 3a 3c
        E 346 95 3a 00
        E 2534 95 3d 3f
        E 346 95 3d 00
        E 374 95 3a 46
        E 346 95 3a 00
        E 1814 95 3d 48
        E 346 95 3d 00
        E 374 95 3a 40
        E 346 95 3a 00
        E 2534 95 3d 40
        E 345 95 3d 00
        E 375 95 3a 47
        E 346 95 3a 00
        E 1814 95 3d 49
        E 346 95 3d 00
        E 374 95 3a 3e
        E 346 95 3a 00
        E 2534 95 3d 3f
        E 346 95 3d 00
        E 374 95 3a 4a
        E 346 95 3a 00
        E 1814 95 3d 48
        E 346 95 3d 00
        E 375 95 3a 3f
        E 345 95 3a 00
        E 2534 95 3d 3e
        E 346 95 3d 00
        E 374 95 3a 48
        E 346 95 3a 00
        E 1814 95 3d 49
        E 346 95 3d 00
        E 374 95 3a 3f
        E 346 95 3a 00
        E 2534 95 3d 40
        E 346 95 3d 00
        E 374 95 3a 47
        E 346 95 3a 00
        E 1814 95 3d 4a
        E 346 95 3d 00
        E 374 95 3a 3e
        E 346 95 3a 00
        E 2534 95 3d 3f
        E 346 95 3d 00
        E 374 95 3a 48
        E 346 95 3a 00
        E 1814 95 3d 49
        E 346 95 3d 00
        E 374 95 3a 40
        E 346 95 3a 00
        E 2534 95 3d 3d
        E 345 95 3d 00
        E 375 95 3a 49
        E 346 95 3a 00
        E 1814 95 3d 46
        E 346 95 3d 00
        E 374 95 3a 3c
        E 346 95 3a 00
        E 2534 95 3d 3d
        E 346 95 3d 00
        E 374 95 3a 49
        E 346 95 3a 00
        E 1814 95 3d 49
        E 346 95 3d 00
        E 374 95 3a 3e
        E 346 95 3a 00
        E 20490 b0 7b 00
        CCINTERP 32
        CHASE_CC_TAKEOFFS 1
        GUID {3D9AC564-DD83-C845-A10F-35623A47B363}
        IGNTEMPO 0 120 4 4
        SRCCOLOR 232
        EVTFILTER 0 -1 -1 -1 -1 0 0 0 0 -1 -1 -1 -1 0 -1 0 -1 -1
      >
    >
  >
  <TRACK {17C0CBC1-3C50-4D4C-BA45-7A31E40DA368}
    NAME 7
    PEAKCOL 16576
    BEAT -1
    AUTOMODE 0
    PANLAWFLAGS 3
    VOLPAN 1 0 -1 -1 1
    MUTESOLO 0 0 0
    IPHASE 0
    PLAYOFFS 0 1
    ISBUS 0 0
    BUSCOMP 0 0 0 0 0
    SHOWINMIX 1 0.6667 0.5 1 0.5 0 0 0
    FIXEDLANES 9 0 0 0 0
    SEL 0
    REC 1 4167 0 0 0 0 0 0
    VU 64
    TRACKHEIGHT 0 0 0 0 0 0 0
    INQ 0 0 0 0.5 100 0 0 100
    NCHAN 2
    FX 1
    TRACKID {17C0CBC1-3C50-4D4C-BA45-7A31E40DA368}
    PERF 0
    MIDIOUT -1
    MAINSEND 1 0
    <ITEM
      POSITION 0
      SNAPOFFS 0
      LENGTH 230.4838481711358
      LOOP 1
      ALLTAKES 0
      FADEIN 1 0 0 1 0 0 0
      FADEOUT 1 0 0 1 0 0 0
      MUTE 0 0
      SEL 0
      IGUID {375597C6-7083-0646-A8B6-CF167B04BAD7}
      IID 31
      NAME 07-7-MIDI
      VOLPAN 1 0 1 -1
      SOFFS 0 0
      PLAYRATE 1 1 0 -1 0 0.0025
      CHANMODE 0
      GUID {0F23EE4F-E391-6B44-85E1-FE78131EC97D}
      RECPASS 19
      <SOURCE MIDI
        HASDATA 1 960 QN
        CCINTERP 32
        POOLEDEVTS {54FF1292-3EF0-0743-9085-B6FDF7E10B97}
        E 92637 96 54 51
        E 346 96 54 00
        E 134 96 52 46
        E 346 96 52 00
        E 2054 96 56 53
        E 346 96 56 00
        E 134 96 4f 46
        E 346 96 4f 00
        E 2054 96 54 51
        E 346 96 54 00
        E 134 96 52 48
        E 346 96 52 00
        E 2054 96 56 53
        E 346 96 56 00
        E 134 96 4f 48
        E 346 96 4f 00
        E 2055 96 54 54
        E 345 96 54 00
        E 134 96 52 4a
        E 346 96 52 00
        E 2054 96 56 52
        E 346 96 56 00
        E 134 96 4f 46
        E 346 96 4f 00
        E 2054 96 54 50
        E 346 96 54 00
        E 134 96 52 49
        E 346 96 52 00
        E 2054 96 56 52
        E 346 96 56 00
        E 134 96 4f 46
        E 346 96 4f 00
        E 2054 96 54 52
        E 346 96 54 00
        E 134 96 52 4a
        E 346 96 52 00
        E 2054 96 56 50
        E 346 96 56 00
        E 134 96 4f 46
        E 346 96 4f 00
        E 2054 96 54 54
        E 346 96 54 00
        E 134 96 52 4a
        E 346 96 52 00
        E 2054 96 56 54
        E 346 96 56 00
        E 134 96 4f 47
        E 346 96 4f 00
        E 2055 96 54 52
        E 345 96 54 00
        E 134 96 52 47
        E 346 96 52 00
        E 2054 96 56 53
        E 346 96 56 00
        E 134 96 4f 48
        E 346 96 4f 00
        E 2054 96 54 54
        E 346 96 54 00
        E 134 96 52 49
        E 346 96 52 00
        E 2054 96 56 51
        E 346 96 56 00
        E 134 96 4f 4a
        E 346 96 4f 00
        E 2054 96 54 50
        E 346 96 54 00
        E 134 96 52 46
        E 346 96 52 00
        E 2054 96 56 54
        E 346 96 56 00
        E 134 96 4f 46
        E 346 96 4f 00
        E 2054 96 54 50
        E 346 96 54 00
        E 134 96 52 4a
        E 346 96 52 00
        E 2055 96 56 51
        E 345 96 56 00
        E 134 96 4f 49
        E 346 96 4f 00
        E 2054 96 54 50
        E 346 96 54 00
        E 134 96 52 48
        E 346 96 52 00
        E 2054 96 56 51
        E 346 96 56 00
        E 134 96 4f 48
        E 346 96 4f 00
        E 2054 96 54 54
        E 346 96 54 00
        E 134 96 52 47
        E 346 96 52 00
        E 2054 96 56 54
        E 346 96 56 00
        E 134 96 4f 46
        E 346 96 4f 00
        E 2054 96 54 50
        E 346 96 54 00
        E 135 96 52 49
        E 345 96 52 00
        E 2054 96 56 52
        E 346 96 56 00
        E 134 96 4f 47
        E 346 96 4f 00
        E 2054 96 54 53
        E 346 96 54 00
        E 134 96 52 48
        E 346 96 52 00
        E 2055 96 56 53
        E 345 96 56 00
        E 135 96 4f 46
        E 345 96 4f 00
        E 2054 96 54 51
        E 346 96 54 00
        E 134 96 52 46
        E 346 96 52 00
        E 2054 96 56 54
        E 346 96 56 00
        E 134 96 4f 4a
        E 346 96 4f 00
        E 2054 96 54 54
        E 346 96 54 00
        E 134 96 52 49
        E 346 96 52 00
        E 2054 96 56 53
        E 346 96 56 00
        E 134 96 4f 48
        E 346 96 4f 00
        E 2054 96 54 54
        E 346 96 54 00
        E 135 96 52 49
        E 345 96 52 00
        E 2054 96 56 52
        E 346 96 56 00
        E 134 96 4f 49
        E 346 96 4f 00
        E 2054 96 54 53
        E 346 96 54 00
        E 134 96 52 4a
        E 346 96 52 00
        E 2054 96 56 51
        E 346 96 56 00
        E 134 96 4f 47
        E 346 96 4f 00
        E 2054 96 54 50
        E 346 96 54 00
        E 134 96 52 47
        E 346 96 52 00
        E 2054 96 56 50
        E 346 96 56 00
        E 134 96 4f 47
        E 346 96 4f 00
        E 2054 96 54 52
        E 346 96 54 00
        E 134 96 52 46
        E 346 96 52 00
        E 2054 96 56 51
        E 346 96 56 00
        E 137 96 4f 48
        E 343 96 4f 00
        E 2054 96 54 53
        E 346 96 54 00
        E 134 96 52 4a
        E 346 96 52 00
        E 2054 96 56 50
        E 346 96 56 00
        E 134 96 4f 46
        E 346 96 4f 00
        E 2057 96 54 50
        E 343 96 54 00
        E 134 96 52 47
        E 346 96 52 00
        E 2054 96 56 53
        E 346 96 56 00
        E 134 96 4f 47
        E 346 96 4f 00
        E 2054 96 54 52
        E 346 96 54 00
        E 134 96 52 48
        E 346 96 52 00
        E 2054 96 56 50
        E 346 96 56 00
        E 134 96 4f 48
        E 346 96 4f 00
        E 2054 96 54 52
        E 346 96 54 00
        E 134 96 52 46
        E 346 96 52 00
        E 2054 96 56 54
        E 346 96 56 00
        E 136 96 4f 49
        E 344 96 4f 00
        E 2054 96 54 53
        E 346 96 54 00
        E 134 96 52 46
        E 346 96 52 00
        E 2057 96 56 53
        E 343 96 56 00
        E 134 96 4f 4a
        E 346 96 4f 00
        E 2054 96 54 54
        E 346 96 54 00
        E 135 96 52 49
        E 345 96 52 00
        E 615 96 56 53
        E 345 96 56 00
        E 1094 96 4f 50
        E 346 96 4f 00
        E 1095 96 52 51
        E 345 96 52 00
        E 1095 96 54 52
        E 345 96 54 00
        E 134 96 52 49
        E 346 96 52 00
        E 2055 96 56 51
        E 345 96 56 00
        E 134 96 4f 46
        E 346 96 4f 00
        E 2055 96 54 54
        E 345 96 54 00
        E 137 96 52 46
        E 343 96 52 00
        E 615 96 56 53
        E 345 96 56 00
        E 1095 96 4f 52
        E 345 96 4f 00
        E 1095 96 52 50
        E 345 96 52 00
        E 1094 96 54 52
        E 346 96 54 00
        E 135 96 52 49
        E 345 96 52 00
        E 2058 96 56 54
        E 342 96 56 00
        E 135 96 4f 4a
        E 345 96 4f 00
        E 2055 96 54 54
        E 345 96 54 00
        E 135 96 52 49
        E 345 96 52 00
        E 615 96 56 51
        E 345 96 56 00
        E 1095 96 4f 54
        E 345 96 4f 00
        E 1095 96 52 53
        E 345 96 52 00
        E 1095 96 54 52
        E 345 96 54 00
        E 135 96 52 4a
        E 345 96 52 00
        E 2055 96 56 53
        E 345 96 56 00
        E 135 96 4f 49
        E 345 96 4f 00
        E 2055 96 54 52
        E 345 96 54 00
        E 137 96 52 46
        E 343 96 52 00
        E 615 96 56 52
        E 345 96 56 00
        E 1095 96 4f 51
        E 345 96 4f 00
        E 1094 96 52 50
        E 346 96 52 00
        E 1096 96 54 52
        E 344 96 54 00
        E 135 96 52 49
        E 345 96 52 00
        E 2055 96 56 51
        E 345 96 56 00
        E 135 96 4f 49
        E 345 96 4f 00
        E 2055 96 54 51
        E 345 96 54 00
        E 135 96 52 48
        E 345 96 52 00
        E 615 96 56 50
        E 345 96 56 00
        E 1095 96 4f 50
        E 345 96 4f 00
        E 1095 96 52 51
        E 345 96 52 00
        E 1095 96 54 50
        E 345 96 54 00
        E 135 96 52 49
        E 345 96 52 00
        E 2055 96 56 54
        E 345 96 56 00
        E 136 96 4f 4a
        E 344 96 4f 00
        E 2055 96 54 54
        E 345 96 54 00
        E 135 96 52 48
        E 345 96 52 00
        E 615 96 56 53
        E 345 96 56 00
        E 1094 96 4f 51
        E 346 96 4f 00
        E 1097 96 52 52
        E 343 96 52 00
        E 1095 96 54 50
        E 345 96 54 00
        E 135 96 52 49
        E 345 96 52 00
        E 2055 96 56 51
        E 345 96 56 00
        E 135 96 4f 46
        E 345 96 4f 00
        E 2055 96 54 50
        E 345 96 54 00
        E 135 96 52 47
        E 345 96 52 00
        E 615 96 56 53
        E 345 96 56 00
        E 1095 96 4f 54
        E 345 96 4f 00
        E 1095 96 52 53
        E 345 96 52 00
        E 1095 96 54 54
        E 345 96 54 00
        E 135 96 52 48
        E 345 96 52 00
        E 2055 96 56 53
        E 345 96 56 00
        E 136 96 4f 46
        E 344 96 4f 00
        E 2055 96 54 52
        E 345 96 54 00
        E 135 96 52 48
        E 345 96 52 00
        E 615 96 56 54
        E 345 96 56 00
        E 1097 96 4f 52
        E 343 96 4f 00
        E 1099 96 52 54
        E 341 96 52 00
        E 1095 96 54 50
        E 345 96 54 00
        E 135 96 52 4a
        E 345 96 52 00
        E 2055 96 56 51
        E 345 96 56 00
        E 135 96 4f 46
        E 345 96 4f 00
        E 2055 96 54 50
        E 345 96 54 00
        E 135 96 52 46
        E 345 96 52 00
        E 615 96 56 50
        E 345 96 56 00
        E 1095 96 4f 50
        E 345 96 4f 00
        E 1095 96 52 50
        E 345 96 52 00
        E 1095 96 54 52
        E 345 96 54 00
        E 135 96 52 48
        E 345 96 52 00
        E 2055 96 56 50
        E 345 96 56 00
        E 135 96 4f 49
        E 345 96 4f 00
        E 2055 96 54 52
        E 345 96 54 00
        E 135 96 52 47
        E 345 96 52 00
        E 615 96 56 54
        E 345 96 56 00
        E 1100 96 4f 50
        E 340 96 4f 00
        E 1097 96 52 50
        E 343 96 52 00
        E 1095 96 54 50
        E 345 96 54 00
        E 135 96 52 46
        E 345 96 52 00
        E 2055 96 56 54
        E 345 96 56 00
        E 135 96 4f 46
        E 345 96 4f 00
        E 2055 96 54 54
        E 345 96 54 00
        E 135 96 52 4a
        E 345 96 52 00
        E 615 96 56 50
        E 345 96 56 00
        E 1095 96 4f 51
        E 345 96 4f 00
        E 1095 96 52 53
        E 345 96 52 00
        E 1095 96 54 52
        E 345 96 54 00
        E 135 96 52 47
        E 345 96 52 00
        E 2055 96 56 51
        E 345 96 56 00
        E 135 96 4f 46
        E 345 96 4f 00
        E 2055 96 54 51
        E 345 96 54 00
        E 135 96 52 4a
        E 345 96 52 00
        E 622 96 56 53
        E 338 96 56 00
        E 1096 96 4f 51
        E 344 96 4f 00
        E 1095 96 52 52
        E 345 96 52 00
        E 47175 96 54 50
        E 345 96 54 00
        E 135 96 52 4a
        E 345 96 52 00
        E 2055 96 54 53
        E 345 96 54 00
        E 135 96 52 4a
        E 345 96 52 00
        E 2055 96 54 51
        E 345 96 54 00
        E 137 96 52 4a
        E 343 96 52 00
        E 2055 96 54 50
        E 345 96 54 00
        E 135 96 52 4a
        E 345 96 52 00
        E 2055 96 54 51
        E 345 96 54 00
        E 135 96 52 48
        E 345 96 52 00
        E 2055 96 54 52
        E 345 96 54 00
        E 135 96 52 4a
        E 345 96 52 00
        E 2055 96 54 54
        E 345 96 54 00
        E 135 96 52 47
        E 345 96 52 00
        E 2055 96 54 50
        E 345 96 54 00
        E 135 96 52 48
        E 345 96 52 00
        E 2055 96 54 50
        E 345 96 54 00
        E 135 96 52 48
        E 345 96 52 00
        E 2055 96 54 52
        E 345 96 54 00
        E 135 96 52 46
        E 345 96 52 00
        E 2055 96 54 50
        E 345 96 54 00
        E 135 96 52 46
        E 345 96 52 00
        E 2055 96 54 51
        E 345 96 54 00
        E 135 96 52 49
        E 345 96 52 00
        E 2055 96 54 52
        E 345 96 54 00
        E 135 96 52 46
        E 345 96 52 00
        E 2055 96 54 54
        E 345 96 54 00
        E 135 96 52 46
        E 345 96 52 00
        E 2055 96 54 50
        E 345 96 54 00
        E 135 96 52 4a
        E 345 96 52 00
        E 2055 96 54 50
        E 345 96 54 00
        E 135 96 52 46
        E 345 96 52 00
        E 2055 96 54 51
        E 345 96 54 00
        E 135 96 52 49
        E 345 96 52 00
        E 2055 96 55 52
        E 345 96 55 00
        E 135 96 54 4a
        E 346 96 54 00
        E 2054 96 54 51
        E 346 96 54 00
        E 134 96 52 48
        E 345 96 52 00
        E 2055 96 55 51
        E 345 96 55 00
        E 135 96 54 47
        E 345 96 54 00
        E 2055 96 54 53
        E 346 96 54 00
        E 134 96 52 49
        E 346 96 52 00
        E 2054 96 55 54
        E 346 96 55 00
        E 134 96 54 49
        E 345 96 54 00
        E 2055 96 54 54
        E 345 96 54 00
        E 135 96 52 46
        E 346 96 52 00
        E 2054 96 55 50
        E 346 96 55 00
        E 134 96 54 47
        E 346 96 54 00
        E 2054 96 54 54
        E 346 96 54 00
        E 134 96 52 46
        E 346 96 52 00
        E 2054 96 55 53
        E 346 96 55 00
        E 134 96 54 46
        E 346 96 54 00
        E 2054 96 54 51
        E 345 96 54 00
        E 135 96 52 49
        E 346 96 52 00
        E 2054 96 55 52
        E 346 96 55 00
        E 134 96 54 47
        E 346 96 54 00
        E 2054 96 54 53
        E 346 96 54 00
        E 134 96 52 49
        E 346 96 52 00
        E 2055 96 55 54
        E 345 96 55 00
        E 134 96 54 49
        E 345 96 54 00
        E 2055 96 54 51
        E 346 96 54 00
        E 134 96 52 49
        E 346 96 52 00
        E 2054 96 55 54
        E 346 96 55 00
        E 134 96 54 46
        E 346 96 54 00
        E 2054 96 54 53
        E 346 96 54 00
        E 134 96 52 46
        E 346 96 52 00
        E 2054 96 55 50
        E 346 96 55 00
        E 134 96 54 49
        E 346 96 54 00
        E 2054 96 54 54
        E 346 96 54 00
        E 134 96 52 46
        E 346 96 52 00
        E 2054 96 55 50
        E 346 96 55 00
        E 134 96 54 48
        E 346 96 54 00
        E 2054 96 54 51
        E 346 96 54 00
        E 134 96 52 46
        E 346 96 52 00
        E 2054 96 55 53
        E 346 96 55 00
        E 134 96 54 4a
        E 346 96 54 00
        E 2054 96 54 50
        E 346 96 54 00
        E 134 96 52 49
        E 346 96 52 00
        E 2054 96 55 52
        E 346 96 55 00
        E 134 96 54 48
        E 346 96 54 00
        E 2054 96 54 52
        E 346 96 54 00
        E 134 96 52 46
        E 346 96 52 00
        E 2054 96 55 50
        E 346 96 55 00
        E 134 96 54 46
        E 346 96 54 00
        E 2054 96 54 52
        E 346 96 54 00
        E 134 96 52 4a
        E 346 96 52 00
        E 2054 96 55 50
        E 345 96 55 00
        E 135 96 54 47
        E 346 96 54 00
        E 2054 96 54 50
        E 346 96 54 00
        E 134 96 52 49
        E 346 96 52 00
        E 2054 96 55 53
        E 346 96 55 00
        E 134 96 54 4a
        E 346 96 54 00
        E 2054 96 54 53
        E 346 96 54 00
        E 134 96 52 4a
        E 346 96 52 00
        E 2054 96 55 53
        E 346 96 55 00
        E 134 96 54 46
        E 346 96 54 00
        E 2054 96 54 51
        E 346 96 54 00
        E 134 96 52 46
        E 346 96 52 00
        E 2054 96 55 50
        E 346 96 55 00
        E 135 96 54 47
        E 345 96 54 00
        E 2054 96 54 51
        E 346 96 54 00
        E 134 96 52 4a
        E 346 96 52 00
        E 2054 96 55 51
        E 346 96 55 00
        E 134 96 54 46
        E 346 96 54 00
        E 2054 96 54 50
        E 346 96 54 00
        E 134 96 52 4a
        E 346 96 52 00
        E 2054 96 55 50
        E 346 96 55 00
        E 134 96 54 47
        E 346 96 54 00
        E 2054 96 54 54
        E 346 96 54 00
        E 134 96 52 47
        E 346 96 52 00
        E 2054 96 55 54
        E 346 96 55 00
        E 134 96 54 46
        E 346 96 54 00
        E 2054 96 54 51
        E 346 96 54 00
        E 134 96 52 48
        E 346 96 52 00
        E 2054 96 55 53
        E 346 96 55 00
        E 134 96 54 47
        E 346 96 54 00
        E 2054 96 54 52
        E 346 96 54 00
        E 134 96 52 47
        E 346 96 52 00
        E 2054 96 55 54
        E 346 96 55 00
        E 134 96 54 47
        E 346 96 54 00
        E 2054 96 54 54
        E 346 96 54 00
        E 134 96 52 4a
        E 346 96 52 00
        E 2054 96 55 54
        E 346 96 55 00
        E 134 96 54 48
        E 345 96 54 00
        E 2055 96 54 54
        E 346 96 54 00
        E 134 96 52 46
        E 346 96 52 00
        E 2054 96 55 52
        E 346 96 55 00
        E 134 96 54 47
        E 346 96 54 00
        E 2054 96 54 51
        E 346 96 54 00
        E 134 96 52 46
        E 346 96 52 00
        E 2054 96 55 53
        E 346 96 55 00
        E 134 96 54 46
        E 346 96 54 00
        E 2054 96 54 52
        E 346 96 54 00
        E 134 96 52 47
        E 346 96 52 00
        E 2054 96 55 54
        E 346 96 55 00
        E 134 96 54 4a
        E 346 96 54 00
        E 2054 96 54 52
        E 346 96 54 00
        E 134 96 52 46
        E 346 96 52 00
        E 2054 96 55 54
        E 346 96 55 00
        E 134 96 54 4a
        E 346 96 54 00
        E 2054 96 54 53
        E 346 96 54 00
        E 134 96 52 4a
        E 346 96 52 00
        E 2054 96 55 50
        E 346 96 55 00
        E 134 96 54 48
        E 346 96 54 00
        E 2054 96 54 51
        E 346 96 54 00
        E 134 96 52 49
        E 346 96 52 00
        E 2054 96 55 51
        E 346 96 55 00
        E 134 96 54 4a
        E 346 96 54 00
        E 2054 96 54 54
        E 346 96 54 00
        E 134 96 52 4a
        E 346 96 52 00
        E 2054 96 55 50
        E 346 96 55 00
        E 134 96 54 49
        E 346 96 54 00
        E 2054 96 54 50
        E 346 96 54 00
        E 134 96 52 49
        E 346 96 52 00
        E 2054 96 55 51
        E 346 96 55 00
        E 134 96 54 47
        E 346 96 54 00
        E 2054 96 54 53
        E 346 96 54 00
        E 134 96 52 49
        E 346 96 52 00
        E 2054 96 55 52
        E 346 96 55 00
        E 134 96 54 47
        E 346 96 54 00
        E 20250 b0 7b 00
        CCINTERP 32
        CHASE_CC_TAKEOFFS 1
        GUID {7B55A88B-29E6-2F49-9630-7A8A0D835D51}
        IGNTEMPO 0 120 4 4
        SRCCOLOR 233
        EVTFILTER 0 -1 -1 -1 -1 0 0 0 0 -1 -1 -1 -1 0 -1 0 -1 -1
      >
    >
  >
  <TRACK {AAA7ED3C-0585-A849-8BA7-CFC3E7E25220}
    NAME 8
    PEAKCOL 16576
    BEAT -1
    AUTOMODE 0
    PANLAWFLAGS 3
    VOLPAN 1 0 -1 -1 1
    MUTESOLO 0 0 0
    IPHASE 0
    PLAYOFFS 0 1
    ISBUS 0 0
    BUSCOMP 0 0 0 0 0
    SHOWINMIX 1 0.6667 0.5 1 0.5 0 0 0
    FIXEDLANES 9 0 0 0 0
    SEL 0
    REC 1 4168 0 0 0 0 0 0
    VU 64
    TRACKHEIGHT 64 0 0 0 0 0 0
    INQ 0 0 0 0.5 100 0 0 100
    NCHAN 2
    FX 1
    TRACKID {AAA7ED3C-0585-A849-8BA7-CFC3E7E25220}
    PERF 0
    MIDIOUT -1
    MAINSEND 1 0
    <ITEM
      POSITION 0
      SNAPOFFS 0
      LENGTH 230.4838481711358
      LOOP 1
      ALLTAKES 0
      FADEIN 1 0 0 1 0 0 0
      FADEOUT 1 0 0 1 0 0 0
      MUTE 0 0
      SEL 0
      IGUID {AFA4AC6E-AAB7-9242-A6BB-9BC4AD5DD201}
      IID 32
      NAME 08-8-MIDI
      VOLPAN 1 0 1 -1
      SOFFS 0 0
      PLAYRATE 1 1 0 -1 0 0.0025
      CHANMODE 0
      GUID {0D459A1C-A80D-0148-96AA-D83FD9139CBB}
      RECPASS 19
      <SOURCE MIDI
        HASDATA 1 960 QN
        CCINTERP 32
        POOLEDEVTS {A6525584-3729-D745-AD4D-0593712F092F}
        E 47517 97 2e 52
        E 346 97 2e 00
        E 614 97 2b 5a
        E 346 97 2b 00
        E 4454 97 2e 5d
        E 346 97 2e 00
        E 614 97 2b 53
        E 346 97 2b 00
        E 4454 97 2e 51
        E 346 97 2e 00
        E 614 97 2b 5d
        E 346 97 2b 00
        E 4454 97 2e 5b
        E 346 97 2e 00
        E 614 97 2b 52
        E 346 97 2b 00
        E 4454 97 2e 50
        E 346 97 2e 00
        E 614 97 2b 5d
        E 345 97 2b 00
        E 4455 97 2e 5e
        E 346 97 2e 00
        E 614 97 2b 51
        E 346 97 2b 00
        E 4454 97 2e 50
        E 346 97 2e 00
        E 614 97 2b 5c
        E 346 97 2b 00
        E 4454 97 2e 5b
        E 346 97 2e 00
        E 614 97 2b 54
        E 346 97 2b 00
        E 3015 97 24 5e
        E 345 97 24 00
        E 1094 97 2e 53
        E 346 97 2e 00
        E 614 97 2b 5c
        E 346 97 2b 00
        E 3014 97 24 50
        E 346 97 24 00
        E 1094 97 2e 5a
        E 346 97 2e 00
        E 614 97 2b 52
        E 346 97 2b 00
        E 3014 97 24 5c
        E 346 97 24 00
        E 1094 97 2e 50
        E 346 97 2e 00
        E 614 97 2b 5a
        E 346 97 2b 00
        E 3014 97 24 54
        E 346 97 24 00
        E 1096 97 2e 5a
        E 344 97 2e 00
        E 614 97 2b 54
        E 346 97 2b 00
        E 3014 97 24 5d
        E 346 97 24 00
        E 1094 97 2e 54
        E 346 97 2e 00
        E 614 97 2b 5c
        E 346 97 2b 00
        E 3014 97 24 53
        E 346 97 24 00
        E 1094 97 2e 5a
        E 346 97 2e 00
        E 614 97 2b 52
        E 346 97 2b 00
        E 3014 97 24 5d
        E 346 97 24 00
        E 1094 97 2e 54
        E 346 97 2e 00
        E 614 97 2b 5c
        E 346 97 2b 00
        E 3018 97 24 52
        E 342 97 24 00
        E 1096 97 2e 5e
        E 344 97 2e 00
        E 614 97 2b 52
        E 346 97 2b 00
        E 3014 97 24 5c
        E 346 97 24 00
        E 1094 97 2e 54
        E 346 97 2e 00
        E 617 97 2b 5b
        E 343 97 2b 00
        E 3014 97 24 50
        E 346 97 24 00
        E 1094 97 2e 5e
        E 346 97 2e 00
        E 614 97 2b 54
        E 346 97 2b 00
        E 3014 97 24 5c
        E 346 97 24 00
        E 1094 97 2e 50
        E 346 97 2e 00
        E 614 97 2b 5b
        E 346 97 2b 00
        E 3018 97 24 52
        E 342 97 24 00
        E 1095 97 2e 5e
        E 345 97 2e 00
        E 614 97 2b 53
        E 346 97 2b 00
        E 3014 97 24 5e
        E 346 97 24 00
        E 1094 97 2e 54
        E 346 97 2e 00
        E 615 97 2b 5a
        E 345 97 2b 00
        E 3014 97 24 50
        E 346 97 24 00
        E 1094 97 2e 5a
        E 346 97 2e 00
        E 614 97 2b 50
        E 346 97 2b 00
        E 3014 97 24 5d
        E 346 97 24 00
        E 1094 97 2e 50
        E 346 97 2e 00
        E 614 97 2b 5c
        E 346 97 2b 00
        E 3014 97 24 52
        E 346 97 24 00
        E 1094 97 2e 5e
        E 346 97 2e 00
        E 614 97 2b 53
        E 346 97 2b 00
        E 3014 97 24 5a
        E 346 97 24 00
        E 1094 97 2e 52
        E 346 97 2e 00
        E 614 97 2b 5e
        E 346 97 2b 00
        E 3014 97 24 50
        E 346 97 24 00
        E 1094 97 2e 5d
        E 346 97 2e 00
        E 614 97 2b 52
        E 346 97 2b 00
        E 3014 97 24 5d
        E 346 97 24 00
        E 1098 97 2e 52
        E 342 97 2e 00
        E 614 97 2b 5c
        E 346 97 2b 00
        E 3016 97 24 50
        E 344 97 24 00
        E 1094 97 2e 5c
        E 346 97 2e 00
        E 614 97 2b 52
        E 346 97 2b 00
        E 3014 97 24 5a
        E 346 97 24 00
        E 1094 97 2e 50
        E 346 97 2e 00
        E 614 97 2b 5a
        E 346 97 2b 00
        E 3014 97 24 54
        E 346 97 24 00
        E 1094 97 2e 5e
        E 346 97 2e 00
        E 614 97 2b 50
        E 346 97 2b 00
        E 3014 97 24 5e
        E 346 97 24 00
        E 1098 97 2e 50
        E 342 97 2e 00
        E 614 97 2b 5b
        E 346 97 2b 00
        E 3014 97 24 53
        E 346 97 24 00
        E 1094 97 2e 5b
        E 346 97 2e 00
        E 614 97 2b 52
        E 346 97 2b 00
        E 3015 97 24 5e
        E 345 97 24 00
        E 1094 97 2e 53
        E 346 97 2e 00
        E 614 97 2b 5b
        E 346 97 2b 00
        E 3015 97 24 52
        E 345 97 24 00
        E 1094 97 2e 5a
        E 346 97 2e 00
        E 615 97 2b 52
        E 345 97 2b 00
        E 3021 97 24 5d
        E 339 97 24 00
        E 1095 97 2e 51
        E 345 97 2e 00
        E 615 97 2b 5e
        E 345 97 2b 00
        E 3015 97 24 53
        E 345 97 24 00
        E 1095 97 2e 5c
        E 345 97 2e 00
        E 617 97 2b 51
        E 343 97 2b 00
        E 3015 97 24 5a
        E 345 97 24 00
        E 1095 97 2e 52
        E 345 97 2e 00
        E 615 97 2b 5c
        E 345 97 2b 00
        E 3015 97 24 50
        E 345 97 24 00
        E 1095 97 2e 5d
        E 345 97 2e 00
        E 615 97 2b 52
        E 345 97 2b 00
        E 3018 97 24 5a
        E 342 97 24 00
        E 1094 97 2e 50
        E 346 97 2e 00
        E 615 97 2b 5e
        E 345 97 2b 00
        E 3015 97 24 54
        E 345 97 24 00
        E 1095 97 2e 5d
        E 345 97 2e 00
        E 615 97 2b 52
        E 345 97 2b 00
        E 3015 97 24 5e
        E 345 97 24 00
        E 1095 97 2e 51
        E 345 97 2e 00
        E 615 97 2b 5d
        E 345 97 2b 00
        E 3015 97 24 54
        E 345 97 24 00
        E 1095 97 2e 5d
        E 345 97 2e 00
        E 615 97 2b 51
        E 345 97 2b 00
        E 3017 97 24 5a
        E 343 97 24 00
        E 1095 97 2e 51
        E 345 97 2e 00
        E 615 97 2b 5e
        E 345 97 2b 00
        E 3015 97 24 52
        E 345 97 24 00
        E 1095 97 2e 5e
        E 345 97 2e 00
        E 615 97 2b 53
        E 345 97 2b 00
        E 3015 97 24 5c
        E 345 97 24 00
        E 1095 97 2e 51
        E 345 97 2e 00
        E 615 97 2b 5c
        E 345 97 2b 00
        E 3015 97 24 54
        E 345 97 24 00
        E 1101 97 2e 5a
        E 339 97 2e 00
        E 615 97 2b 52
        E 345 97 2b 00
        E 3019 97 24 5d
        E 341 97 24 00
        E 1095 97 2e 53
        E 345 97 2e 00
        E 620 97 2b 5a
        E 340 97 2b 00
        E 3015 97 24 50
        E 345 97 24 00
        E 1095 97 2e 5d
        E 345 97 2e 00
        E 615 97 2b 53
        E 345 97 2b 00
        E 3015 97 24 5e
        E 345 97 24 00
        E 1095 97 2e 52
        E 345 97 2e 00
        E 615 97 2b 5c
        E 345 97 2b 00
        E 3024 97 24 50
        E 336 97 24 00
        E 1095 97 2e 5b
        E 345 97 2e 00
        E 615 97 2b 53
        E 345 97 2b 00
        E 3015 97 24 5b
        E 345 97 24 00
        E 1095 97 2e 53
        E 345 97 2e 00
        E 618 97 2b 5c
        E 342 97 2b 00
        E 3015 97 24 52
        E 345 97 24 00
        E 1095 97 2e 5d
        E 345 97 2e 00
        E 615 97 2b 52
        E 345 97 2b 00
        E 3015 97 24 5d
        E 345 97 24 00
        E 1095 97 2e 52
        E 345 97 2e 00
        E 615 97 2b 5c
        E 345 97 2b 00
        E 3021 97 24 52
        E 339 97 24 00
        E 1095 97 2e 5e
        E 345 97 2e 00
        E 615 97 2b 50
        E 345 97 2b 00
        E 3015 97 24 5a
        E 345 97 24 00
        E 1094 97 2e 54
        E 346 97 2e 00
        E 615 97 2b 5d
        E 345 97 2b 00
        E 3015 97 24 52
        E 345 97 24 00
        E 1095 97 2e 5e
        E 345 97 2e 00
        E 615 97 2b 50
        E 345 97 2b 00
        E 3015 97 24 5c
        E 345 97 24 00
        E 1095 97 2e 54
        E 345 97 2e 00
        E 3975 97 24 53
        E 345 97 24 00
        E 1098 97 2e 5e
        E 342 97 2e 00
        E 3975 97 24 5b
        E 345 97 24 00
        E 1095 97 2e 51
        E 345 97 2e 00
        E 3975 97 24 54
        E 345 97 24 00
        E 1095 97 2e 5d
        E 345 97 2e 00
        E 3975 97 24 5b
        E 345 97 24 00
        E 1095 97 2e 50
        E 345 97 2e 00
        E 3976 97 24 52
        E 344 97 24 00
        E 1095 97 2e 5d
        E 345 97 2e 00
        E 3975 97 24 5d
        E 345 97 24 00
        E 1095 97 2e 50
        E 345 97 2e 00
        E 3975 97 24 52
        E 345 97 24 00
        E 1095 97 2e 5b
        E 345 97 2e 00
        E 3975 97 24 5d
        E 345 97 24 00
        E 1095 97 2e 54
        E 345 97 2e 00
        E 3975 97 24 53
        E 345 97 24 00
        E 1095 97 2e 5d
        E 345 97 2e 00
        E 3975 97 24 5a
        E 345 97 24 00
        E 1095 97 2e 53
        E 345 97 2e 00
        E 3975 97 24 53
        E 345 97 24 00
        E 1095 97 2e 5e
        E 345 97 2e 00
        E 3975 97 24 5e
        E 345 97 24 00
        E 1097 97 2e 54
        E 343 97 2e 00
        E 3975 97 24 54
        E 345 97 24 00
        E 1095 97 2e 5e
        E 345 97 2e 00
        E 3975 97 24 5c
        E 345 97 24 00
        E 1095 97 2e 51
        E 345 97 2e 00
        E 3975 97 24 54
        E 345 97 24 00
        E 1095 97 2e 5b
        E 345 97 2e 00
        E 5415 97 2e 50
        E 345 97 2e 00
        E 615 97 24 5a
        E 345 97 24 00
        E 4455 97 2e 5c
        E 345 97 2e 00
        E 615 97 24 50
        E 346 97 24 00
        E 4454 97 2e 52
        E 345 97 2e 00
        E 615 97 24 5c
        E 345 97 24 00
        E 4456 97 2e 5d
        E 345 97 2e 00
        E 614 97 24 54
        E 346 97 24 00
        E 4454 97 2e 54
        E 346 97 2e 00
        E 614 97 24 5a
        E 346 97 24 00
        E 4454 97 2e 5d
        E 345 97 2e 00
        E 615 97 24 53
        E 346 97 24 00
        E 4454 97 2e 50
        E 346 97 2e 00
        E 614 97 24 5e
        E 346 97 24 00
        E 4454 97 2e 5c
        E 346 97 2e 00
        E 614 97 24 53
        E 346 97 24 00
        E 4454 97 29 52
        E 345 97 29 00
        E 615 97 24 5e
        E 346 97 24 00
        E 4454 97 2e 5e
        E 346 97 2e 00
        E 614 97 24 53
        E 346 97 24 00
        E 4454 97 29 50
        E 346 97 29 00
        E 614 97 24 5d
        E 346 97 24 00
        E 4454 97 2e 5c
        E 346 97 2e 00
        E 614 97 24 54
        E 346 97 24 00
        E 4454 97 29 51
        E 346 97 29 00
        E 614 97 24 5a
        E 346 97 24 00
        E 4454 97 2e 5a
        E 346 97 2e 00
        E 614 97 24 54
        E 346 97 24 00
        E 4454 97 29 51
        E 346 97 29 00
        E 614 97 24 5d
        E 346 97 24 00
        E 4454 97 2e 5a
        E 346 97 2e 00
        E 614 97 24 53
        E 346 97 24 00
        E 3014 97 28 5d
        E 346 97 28 00
        E 1094 97 29 52
        E 346 97 29 00
        E 614 97 24 5a
        E 346 97 24 00
        E 4454 97 29 5e
        E 346 97 29 00
        E 614 97 24 52
        E 346 97 24 00
        E 3014 97 28 5a
        E 346 97 28 00
        E 1097 97 29 51
        E 343 97 29 00
        E 614 97 24 5e
        E 346 97 24 00
        E 4454 97 29 5a
        E 346 97 29 00
        E 614 97 24 54
        E 346 97 24 00
        E 3014 97 28 5d
        E 346 97 28 00
        E 1094 97 29 53
        E 346 97 29 00
        E 614 97 24 5d
        E 346 97 24 00
        E 4454 97 29 5c
        E 346 97 29 00
        E 614 97 24 52
        E 346 97 24 00
        E 3014 97 28 5a
        E 346 97 28 00
        E 1094 97 29 54
        E 346 97 29 00
        E 614 97 24 5e
        E 346 97 24 00
        E 4454 97 29 5d
        E 346 97 29 00
        E 615 97 24 54
        E 345 97 24 00
        E 3014 97 28 5e
        E 346 97 28 00
        E 1094 97 29 53
        E 345 97 29 00
        E 615 97 24 5b
        E 346 97 24 00
        E 4454 97 29 5c
        E 346 97 29 00
        E 614 97 24 51
        E 346 97 24 00
        E 3017 97 28 5c
        E 343 97 28 00
        E 1094 97 29 50
        E 346 97 29 00
        E 614 97 24 5c
        E 346 97 24 00
        E 4454 97 29 5d
        E 346 97 29 00
        E 614 97 24 53
        E 346 97 24 00
        E 3014 97 28 5e
        E 345 97 28 00
        E 1095 97 29 54
        E 346 97 29 00
        E 614 97 24 5b
        E 346 97 24 00
        E 4454 97 29 5e
        E 346 97 29 00
        E 614 97 24 51
        E 346 97 24 00
        E 3014 97 28 5e
        E 346 97 28 00
        E 1094 97 29 53
        E 346 97 29 00
        E 614 97 24 5d
        E 346 97 24 00
        E 4454 97 29 5c
        E 346 97 29 00
        E 614 97 24 52
        E 346 97 24 00
        E 3014 97 28 5d
        E 346 97 28 00
        E 18330 b0 7b 00
        CCINTERP 32
        CHASE_CC_TAKEOFFS 1
        GUID {348ABA1C-1E0B-6442-8576-41A05157F2F6}
        IGNTEMPO 0 120 4 4
        SRCCOLOR 234
        EVTFILTER 0 -1 -1 -1 -1 0 0 0 0 -1 -1 -1 -1 0 -1 0 -1 -1
      >
    >
  >
>
